<mxfile host="app.diagrams.net" modified="2020-04-17T16:10:34.506Z" agent="5.0 (Windows NT 6.1; WOW64) AppleWebKit/537.36 (KHTML, like Gecko) Chrome/80.0.3987.163 Safari/537.36" etag="CXw_JXBr8CWNTlcQq8nD" version="12.9.13" type="github">
  <diagram id="t_fO3VGlL6wC9DPot7v3" name="Page-1">
    <mxGraphModel dx="868" dy="433" grid="1" gridSize="10" guides="1" tooltips="1" connect="1" arrows="1" fold="1" page="1" pageScale="1" pageWidth="827" pageHeight="1169" math="0" shadow="0">
      <root>
        <mxCell id="0" />
        <mxCell id="1" parent="0" />
        <mxCell id="9N0QqS98CEpH2FjnTkVc-3" value="&lt;font face=&quot;Times New Roman&quot;&gt;Biaffine Parser&lt;/font&gt;" style="rounded=0;whiteSpace=wrap;html=1;" parent="1" vertex="1">
          <mxGeometry x="240" y="360" width="360" height="30" as="geometry" />
        </mxCell>
        <mxCell id="9N0QqS98CEpH2FjnTkVc-6" value="" style="endArrow=classic;html=1;exitX=0.5;exitY=0;exitDx=0;exitDy=0;entryX=0.221;entryY=1.048;entryDx=0;entryDy=0;entryPerimeter=0;" parent="1" source="9N0QqS98CEpH2FjnTkVc-1" target="9N0QqS98CEpH2FjnTkVc-3" edge="1">
          <mxGeometry width="50" height="50" relative="1" as="geometry">
            <mxPoint x="300" y="440" as="sourcePoint" />
            <mxPoint x="317" y="400" as="targetPoint" />
          </mxGeometry>
        </mxCell>
        <mxCell id="9N0QqS98CEpH2FjnTkVc-7" value="" style="endArrow=classic;html=1;exitX=0.5;exitY=0;exitDx=0;exitDy=0;entryX=0.779;entryY=0.979;entryDx=0;entryDy=0;entryPerimeter=0;" parent="1" source="9N0QqS98CEpH2FjnTkVc-44" target="9N0QqS98CEpH2FjnTkVc-3" edge="1">
          <mxGeometry width="50" height="50" relative="1" as="geometry">
            <mxPoint x="460" y="439.9999999999999" as="sourcePoint" />
            <mxPoint x="516" y="394" as="targetPoint" />
          </mxGeometry>
        </mxCell>
        <mxCell id="9N0QqS98CEpH2FjnTkVc-8" value="" style="endArrow=classic;html=1;exitX=0.222;exitY=-0.032;exitDx=0;exitDy=0;exitPerimeter=0;" parent="1" source="9N0QqS98CEpH2FjnTkVc-3" edge="1">
          <mxGeometry width="50" height="50" relative="1" as="geometry">
            <mxPoint x="320" y="350" as="sourcePoint" />
            <mxPoint x="320" y="317" as="targetPoint" />
          </mxGeometry>
        </mxCell>
        <mxCell id="9N0QqS98CEpH2FjnTkVc-9" value="" style="endArrow=classic;html=1;entryX=1;entryY=1;entryDx=0;entryDy=0;" parent="1" target="9N0QqS98CEpH2FjnTkVc-130" edge="1">
          <mxGeometry width="50" height="50" relative="1" as="geometry">
            <mxPoint x="520" y="360" as="sourcePoint" />
            <mxPoint x="500" y="320" as="targetPoint" />
          </mxGeometry>
        </mxCell>
        <mxCell id="9N0QqS98CEpH2FjnTkVc-41" value="" style="group" parent="1" vertex="1" connectable="0">
          <mxGeometry x="290" y="445" width="70" height="25" as="geometry" />
        </mxCell>
        <mxCell id="9N0QqS98CEpH2FjnTkVc-1" value="" style="rounded=0;whiteSpace=wrap;html=1;" parent="9N0QqS98CEpH2FjnTkVc-41" vertex="1">
          <mxGeometry x="-10" y="-5" width="80" height="30" as="geometry" />
        </mxCell>
        <mxCell id="9N0QqS98CEpH2FjnTkVc-11" value="" style="rounded=0;whiteSpace=wrap;html=1;fillColor=none;" parent="9N0QqS98CEpH2FjnTkVc-41" vertex="1">
          <mxGeometry width="60" height="20" as="geometry" />
        </mxCell>
        <mxCell id="9N0QqS98CEpH2FjnTkVc-10" value="" style="ellipse;whiteSpace=wrap;html=1;aspect=fixed;fillColor=#009900;" parent="9N0QqS98CEpH2FjnTkVc-41" vertex="1">
          <mxGeometry width="20" height="20" as="geometry" />
        </mxCell>
        <mxCell id="9N0QqS98CEpH2FjnTkVc-12" value="" style="ellipse;whiteSpace=wrap;html=1;aspect=fixed;" parent="9N0QqS98CEpH2FjnTkVc-41" vertex="1">
          <mxGeometry x="20" width="20" height="20" as="geometry" />
        </mxCell>
        <mxCell id="9N0QqS98CEpH2FjnTkVc-13" value="" style="ellipse;whiteSpace=wrap;html=1;aspect=fixed;" parent="9N0QqS98CEpH2FjnTkVc-41" vertex="1">
          <mxGeometry x="40" width="20" height="20" as="geometry" />
        </mxCell>
        <mxCell id="9N0QqS98CEpH2FjnTkVc-43" value="" style="group" parent="1" vertex="1" connectable="0">
          <mxGeometry x="490" y="445" width="70" height="25" as="geometry" />
        </mxCell>
        <mxCell id="9N0QqS98CEpH2FjnTkVc-44" value="" style="rounded=0;whiteSpace=wrap;html=1;" parent="9N0QqS98CEpH2FjnTkVc-43" vertex="1">
          <mxGeometry x="-10" y="-5" width="80" height="30" as="geometry" />
        </mxCell>
        <mxCell id="9N0QqS98CEpH2FjnTkVc-45" value="" style="rounded=0;whiteSpace=wrap;html=1;fillColor=none;" parent="9N0QqS98CEpH2FjnTkVc-43" vertex="1">
          <mxGeometry width="60" height="20" as="geometry" />
        </mxCell>
        <mxCell id="9N0QqS98CEpH2FjnTkVc-46" value="" style="ellipse;whiteSpace=wrap;html=1;aspect=fixed;fillColor=#000099;" parent="9N0QqS98CEpH2FjnTkVc-43" vertex="1">
          <mxGeometry width="20" height="20" as="geometry" />
        </mxCell>
        <mxCell id="9N0QqS98CEpH2FjnTkVc-47" value="" style="ellipse;whiteSpace=wrap;html=1;aspect=fixed;" parent="9N0QqS98CEpH2FjnTkVc-43" vertex="1">
          <mxGeometry x="20" width="20" height="20" as="geometry" />
        </mxCell>
        <mxCell id="9N0QqS98CEpH2FjnTkVc-48" value="" style="ellipse;whiteSpace=wrap;html=1;aspect=fixed;" parent="9N0QqS98CEpH2FjnTkVc-43" vertex="1">
          <mxGeometry x="40" width="20" height="20" as="geometry" />
        </mxCell>
        <mxCell id="9N0QqS98CEpH2FjnTkVc-85" value="" style="group" parent="1" vertex="1" connectable="0">
          <mxGeometry x="240" y="260" width="60" height="60" as="geometry" />
        </mxCell>
        <mxCell id="9N0QqS98CEpH2FjnTkVc-66" value="" style="ellipse;whiteSpace=wrap;html=1;aspect=fixed;rotation=90;" parent="9N0QqS98CEpH2FjnTkVc-85" vertex="1">
          <mxGeometry x="40" width="20" height="20" as="geometry" />
        </mxCell>
        <mxCell id="9N0QqS98CEpH2FjnTkVc-67" value="" style="ellipse;whiteSpace=wrap;html=1;aspect=fixed;rotation=90;" parent="9N0QqS98CEpH2FjnTkVc-85" vertex="1">
          <mxGeometry x="40" y="20" width="20" height="20" as="geometry" />
        </mxCell>
        <mxCell id="9N0QqS98CEpH2FjnTkVc-68" value="" style="ellipse;whiteSpace=wrap;html=1;aspect=fixed;rotation=90;" parent="9N0QqS98CEpH2FjnTkVc-85" vertex="1">
          <mxGeometry x="40" y="40" width="20" height="20" as="geometry" />
        </mxCell>
        <mxCell id="9N0QqS98CEpH2FjnTkVc-61" value="" style="ellipse;whiteSpace=wrap;html=1;aspect=fixed;rotation=90;" parent="9N0QqS98CEpH2FjnTkVc-85" vertex="1">
          <mxGeometry x="20" width="20" height="20" as="geometry" />
        </mxCell>
        <mxCell id="9N0QqS98CEpH2FjnTkVc-62" value="" style="ellipse;whiteSpace=wrap;html=1;aspect=fixed;rotation=90;" parent="9N0QqS98CEpH2FjnTkVc-85" vertex="1">
          <mxGeometry x="20" y="20" width="20" height="20" as="geometry" />
        </mxCell>
        <mxCell id="9N0QqS98CEpH2FjnTkVc-63" value="" style="ellipse;whiteSpace=wrap;html=1;aspect=fixed;rotation=90;" parent="9N0QqS98CEpH2FjnTkVc-85" vertex="1">
          <mxGeometry x="20" y="40" width="20" height="20" as="geometry" />
        </mxCell>
        <mxCell id="9N0QqS98CEpH2FjnTkVc-54" value="" style="rounded=0;whiteSpace=wrap;html=1;fillColor=none;rotation=90;" parent="9N0QqS98CEpH2FjnTkVc-85" vertex="1">
          <mxGeometry width="60" height="60" as="geometry" />
        </mxCell>
        <mxCell id="9N0QqS98CEpH2FjnTkVc-55" value="" style="ellipse;whiteSpace=wrap;html=1;aspect=fixed;rotation=90;fillColor=#009900;" parent="9N0QqS98CEpH2FjnTkVc-85" vertex="1">
          <mxGeometry width="20" height="20" as="geometry" />
        </mxCell>
        <mxCell id="9N0QqS98CEpH2FjnTkVc-56" value="" style="ellipse;whiteSpace=wrap;html=1;aspect=fixed;rotation=90;fillColor=#009900;" parent="9N0QqS98CEpH2FjnTkVc-85" vertex="1">
          <mxGeometry y="20" width="20" height="20" as="geometry" />
        </mxCell>
        <mxCell id="9N0QqS98CEpH2FjnTkVc-57" value="" style="ellipse;whiteSpace=wrap;html=1;aspect=fixed;rotation=90;fillColor=#009900;" parent="9N0QqS98CEpH2FjnTkVc-85" vertex="1">
          <mxGeometry y="40" width="20" height="20" as="geometry" />
        </mxCell>
        <mxCell id="9N0QqS98CEpH2FjnTkVc-86" value="" style="group" parent="1" vertex="1" connectable="0">
          <mxGeometry x="440" y="260" width="60" height="60" as="geometry" />
        </mxCell>
        <mxCell id="9N0QqS98CEpH2FjnTkVc-87" value="" style="ellipse;whiteSpace=wrap;html=1;aspect=fixed;rotation=90;" parent="9N0QqS98CEpH2FjnTkVc-86" vertex="1">
          <mxGeometry x="40" width="20" height="20" as="geometry" />
        </mxCell>
        <mxCell id="9N0QqS98CEpH2FjnTkVc-88" value="" style="ellipse;whiteSpace=wrap;html=1;aspect=fixed;rotation=90;" parent="9N0QqS98CEpH2FjnTkVc-86" vertex="1">
          <mxGeometry x="40" y="20" width="20" height="20" as="geometry" />
        </mxCell>
        <mxCell id="9N0QqS98CEpH2FjnTkVc-89" value="" style="ellipse;whiteSpace=wrap;html=1;aspect=fixed;rotation=90;" parent="9N0QqS98CEpH2FjnTkVc-86" vertex="1">
          <mxGeometry x="40" y="40" width="20" height="20" as="geometry" />
        </mxCell>
        <mxCell id="9N0QqS98CEpH2FjnTkVc-90" value="" style="ellipse;whiteSpace=wrap;html=1;aspect=fixed;rotation=90;" parent="9N0QqS98CEpH2FjnTkVc-86" vertex="1">
          <mxGeometry x="20" width="20" height="20" as="geometry" />
        </mxCell>
        <mxCell id="9N0QqS98CEpH2FjnTkVc-91" value="" style="ellipse;whiteSpace=wrap;html=1;aspect=fixed;rotation=90;" parent="9N0QqS98CEpH2FjnTkVc-86" vertex="1">
          <mxGeometry x="20" y="20" width="20" height="20" as="geometry" />
        </mxCell>
        <mxCell id="9N0QqS98CEpH2FjnTkVc-92" value="" style="ellipse;whiteSpace=wrap;html=1;aspect=fixed;rotation=90;" parent="9N0QqS98CEpH2FjnTkVc-86" vertex="1">
          <mxGeometry x="20" y="40" width="20" height="20" as="geometry" />
        </mxCell>
        <mxCell id="9N0QqS98CEpH2FjnTkVc-93" value="" style="rounded=0;whiteSpace=wrap;html=1;fillColor=none;rotation=90;" parent="9N0QqS98CEpH2FjnTkVc-86" vertex="1">
          <mxGeometry width="60" height="60" as="geometry" />
        </mxCell>
        <mxCell id="9N0QqS98CEpH2FjnTkVc-94" value="" style="ellipse;whiteSpace=wrap;html=1;aspect=fixed;rotation=90;fillColor=#000099;" parent="9N0QqS98CEpH2FjnTkVc-86" vertex="1">
          <mxGeometry width="20" height="20" as="geometry" />
        </mxCell>
        <mxCell id="9N0QqS98CEpH2FjnTkVc-95" value="" style="ellipse;whiteSpace=wrap;html=1;aspect=fixed;rotation=90;fillColor=#000099;" parent="9N0QqS98CEpH2FjnTkVc-86" vertex="1">
          <mxGeometry y="20" width="20" height="20" as="geometry" />
        </mxCell>
        <mxCell id="9N0QqS98CEpH2FjnTkVc-96" value="" style="ellipse;whiteSpace=wrap;html=1;aspect=fixed;rotation=90;fillColor=#000099;" parent="9N0QqS98CEpH2FjnTkVc-86" vertex="1">
          <mxGeometry y="40" width="20" height="20" as="geometry" />
        </mxCell>
        <mxCell id="9N0QqS98CEpH2FjnTkVc-122" value="" style="group" parent="1" vertex="1" connectable="0">
          <mxGeometry x="320" y="240" width="60" height="80" as="geometry" />
        </mxCell>
        <mxCell id="9N0QqS98CEpH2FjnTkVc-109" value="" style="ellipse;whiteSpace=wrap;html=1;aspect=fixed;rotation=90;" parent="9N0QqS98CEpH2FjnTkVc-122" vertex="1">
          <mxGeometry x="40" y="20" width="20" height="20" as="geometry" />
        </mxCell>
        <mxCell id="9N0QqS98CEpH2FjnTkVc-110" value="" style="ellipse;whiteSpace=wrap;html=1;aspect=fixed;rotation=90;" parent="9N0QqS98CEpH2FjnTkVc-122" vertex="1">
          <mxGeometry x="40" y="40" width="20" height="20" as="geometry" />
        </mxCell>
        <mxCell id="9N0QqS98CEpH2FjnTkVc-111" value="" style="ellipse;whiteSpace=wrap;html=1;aspect=fixed;rotation=90;" parent="9N0QqS98CEpH2FjnTkVc-122" vertex="1">
          <mxGeometry x="40" y="60" width="20" height="20" as="geometry" />
        </mxCell>
        <mxCell id="9N0QqS98CEpH2FjnTkVc-112" value="" style="ellipse;whiteSpace=wrap;html=1;aspect=fixed;rotation=90;" parent="9N0QqS98CEpH2FjnTkVc-122" vertex="1">
          <mxGeometry x="20" y="20" width="20" height="20" as="geometry" />
        </mxCell>
        <mxCell id="9N0QqS98CEpH2FjnTkVc-113" value="" style="ellipse;whiteSpace=wrap;html=1;aspect=fixed;rotation=90;" parent="9N0QqS98CEpH2FjnTkVc-122" vertex="1">
          <mxGeometry x="20" y="40" width="20" height="20" as="geometry" />
        </mxCell>
        <mxCell id="9N0QqS98CEpH2FjnTkVc-114" value="" style="ellipse;whiteSpace=wrap;html=1;aspect=fixed;rotation=90;" parent="9N0QqS98CEpH2FjnTkVc-122" vertex="1">
          <mxGeometry x="20" y="60" width="20" height="20" as="geometry" />
        </mxCell>
        <mxCell id="9N0QqS98CEpH2FjnTkVc-115" value="" style="rounded=0;whiteSpace=wrap;html=1;fillColor=none;rotation=90;" parent="9N0QqS98CEpH2FjnTkVc-122" vertex="1">
          <mxGeometry x="-10" y="10" width="80" height="60" as="geometry" />
        </mxCell>
        <mxCell id="9N0QqS98CEpH2FjnTkVc-116" value="" style="ellipse;whiteSpace=wrap;html=1;aspect=fixed;rotation=90;fillColor=#009900;" parent="9N0QqS98CEpH2FjnTkVc-122" vertex="1">
          <mxGeometry y="20" width="20" height="20" as="geometry" />
        </mxCell>
        <mxCell id="9N0QqS98CEpH2FjnTkVc-117" value="" style="ellipse;whiteSpace=wrap;html=1;aspect=fixed;rotation=90;fillColor=#009900;" parent="9N0QqS98CEpH2FjnTkVc-122" vertex="1">
          <mxGeometry y="40" width="20" height="20" as="geometry" />
        </mxCell>
        <mxCell id="9N0QqS98CEpH2FjnTkVc-118" value="" style="ellipse;whiteSpace=wrap;html=1;aspect=fixed;rotation=90;fillColor=#009900;" parent="9N0QqS98CEpH2FjnTkVc-122" vertex="1">
          <mxGeometry y="60" width="20" height="20" as="geometry" />
        </mxCell>
        <mxCell id="9N0QqS98CEpH2FjnTkVc-119" value="" style="ellipse;whiteSpace=wrap;html=1;aspect=fixed;rotation=90;fillColor=#009900;" parent="9N0QqS98CEpH2FjnTkVc-122" vertex="1">
          <mxGeometry width="20" height="20" as="geometry" />
        </mxCell>
        <mxCell id="9N0QqS98CEpH2FjnTkVc-120" value="" style="ellipse;whiteSpace=wrap;html=1;aspect=fixed;rotation=90;" parent="9N0QqS98CEpH2FjnTkVc-122" vertex="1">
          <mxGeometry x="20" width="20" height="20" as="geometry" />
        </mxCell>
        <mxCell id="9N0QqS98CEpH2FjnTkVc-121" value="" style="ellipse;whiteSpace=wrap;html=1;aspect=fixed;rotation=90;" parent="9N0QqS98CEpH2FjnTkVc-122" vertex="1">
          <mxGeometry x="40" width="20" height="20" as="geometry" />
        </mxCell>
        <mxCell id="9N0QqS98CEpH2FjnTkVc-123" value="" style="group" parent="1" vertex="1" connectable="0">
          <mxGeometry x="520" y="240" width="60" height="80" as="geometry" />
        </mxCell>
        <mxCell id="9N0QqS98CEpH2FjnTkVc-124" value="" style="ellipse;whiteSpace=wrap;html=1;aspect=fixed;rotation=90;" parent="9N0QqS98CEpH2FjnTkVc-123" vertex="1">
          <mxGeometry x="40" y="20" width="20" height="20" as="geometry" />
        </mxCell>
        <mxCell id="9N0QqS98CEpH2FjnTkVc-125" value="" style="ellipse;whiteSpace=wrap;html=1;aspect=fixed;rotation=90;" parent="9N0QqS98CEpH2FjnTkVc-123" vertex="1">
          <mxGeometry x="40" y="40" width="20" height="20" as="geometry" />
        </mxCell>
        <mxCell id="9N0QqS98CEpH2FjnTkVc-126" value="" style="ellipse;whiteSpace=wrap;html=1;aspect=fixed;rotation=90;" parent="9N0QqS98CEpH2FjnTkVc-123" vertex="1">
          <mxGeometry x="40" y="60" width="20" height="20" as="geometry" />
        </mxCell>
        <mxCell id="9N0QqS98CEpH2FjnTkVc-127" value="" style="ellipse;whiteSpace=wrap;html=1;aspect=fixed;rotation=90;" parent="9N0QqS98CEpH2FjnTkVc-123" vertex="1">
          <mxGeometry x="20" y="20" width="20" height="20" as="geometry" />
        </mxCell>
        <mxCell id="9N0QqS98CEpH2FjnTkVc-128" value="" style="ellipse;whiteSpace=wrap;html=1;aspect=fixed;rotation=90;" parent="9N0QqS98CEpH2FjnTkVc-123" vertex="1">
          <mxGeometry x="20" y="40" width="20" height="20" as="geometry" />
        </mxCell>
        <mxCell id="9N0QqS98CEpH2FjnTkVc-129" value="" style="ellipse;whiteSpace=wrap;html=1;aspect=fixed;rotation=90;" parent="9N0QqS98CEpH2FjnTkVc-123" vertex="1">
          <mxGeometry x="20" y="60" width="20" height="20" as="geometry" />
        </mxCell>
        <mxCell id="9N0QqS98CEpH2FjnTkVc-130" value="" style="rounded=0;whiteSpace=wrap;html=1;fillColor=none;rotation=90;" parent="9N0QqS98CEpH2FjnTkVc-123" vertex="1">
          <mxGeometry x="-10" y="10" width="80" height="60" as="geometry" />
        </mxCell>
        <mxCell id="9N0QqS98CEpH2FjnTkVc-131" value="" style="ellipse;whiteSpace=wrap;html=1;aspect=fixed;rotation=90;fillColor=#000099;" parent="9N0QqS98CEpH2FjnTkVc-123" vertex="1">
          <mxGeometry y="20" width="20" height="20" as="geometry" />
        </mxCell>
        <mxCell id="9N0QqS98CEpH2FjnTkVc-132" value="" style="ellipse;whiteSpace=wrap;html=1;aspect=fixed;rotation=90;fillColor=#000099;" parent="9N0QqS98CEpH2FjnTkVc-123" vertex="1">
          <mxGeometry y="40" width="20" height="20" as="geometry" />
        </mxCell>
        <mxCell id="9N0QqS98CEpH2FjnTkVc-133" value="" style="ellipse;whiteSpace=wrap;html=1;aspect=fixed;rotation=90;fillColor=#000099;" parent="9N0QqS98CEpH2FjnTkVc-123" vertex="1">
          <mxGeometry y="60" width="20" height="20" as="geometry" />
        </mxCell>
        <mxCell id="9N0QqS98CEpH2FjnTkVc-134" value="" style="ellipse;whiteSpace=wrap;html=1;aspect=fixed;rotation=90;fillColor=#000099;" parent="9N0QqS98CEpH2FjnTkVc-123" vertex="1">
          <mxGeometry width="20" height="20" as="geometry" />
        </mxCell>
        <mxCell id="9N0QqS98CEpH2FjnTkVc-135" value="" style="ellipse;whiteSpace=wrap;html=1;aspect=fixed;rotation=90;" parent="9N0QqS98CEpH2FjnTkVc-123" vertex="1">
          <mxGeometry x="20" width="20" height="20" as="geometry" />
        </mxCell>
        <mxCell id="9N0QqS98CEpH2FjnTkVc-136" value="" style="ellipse;whiteSpace=wrap;html=1;aspect=fixed;rotation=90;" parent="9N0QqS98CEpH2FjnTkVc-123" vertex="1">
          <mxGeometry x="40" width="20" height="20" as="geometry" />
        </mxCell>
        <mxCell id="9N0QqS98CEpH2FjnTkVc-137" value="&lt;b&gt;&lt;font style=&quot;font-size: 24px&quot;&gt;. . .&lt;/font&gt;&lt;/b&gt;" style="text;html=1;strokeColor=none;fillColor=none;align=center;verticalAlign=middle;whiteSpace=wrap;rounded=0;" parent="1" vertex="1">
          <mxGeometry x="394" y="440" width="40" height="20" as="geometry" />
        </mxCell>
        <mxCell id="9N0QqS98CEpH2FjnTkVc-138" value="&lt;b&gt;&lt;font style=&quot;font-size: 24px&quot;&gt;. . .&lt;/font&gt;&lt;/b&gt;" style="text;html=1;strokeColor=none;fillColor=none;align=center;verticalAlign=middle;whiteSpace=wrap;rounded=0;" parent="1" vertex="1">
          <mxGeometry x="393.5" y="300" width="40" height="20" as="geometry" />
        </mxCell>
        <mxCell id="9N0QqS98CEpH2FjnTkVc-141" value="" style="endArrow=classic;html=1;exitX=0;exitY=0.5;exitDx=0;exitDy=0;" parent="1" source="9N0QqS98CEpH2FjnTkVc-55" edge="1">
          <mxGeometry width="50" height="50" relative="1" as="geometry">
            <mxPoint x="240" y="228" as="sourcePoint" />
            <mxPoint x="280" y="200" as="targetPoint" />
          </mxGeometry>
        </mxCell>
        <mxCell id="9N0QqS98CEpH2FjnTkVc-142" value="" style="endArrow=classic;html=1;exitX=0;exitY=0.5;exitDx=0;exitDy=0;" parent="1" source="9N0QqS98CEpH2FjnTkVc-94" edge="1">
          <mxGeometry width="50" height="50" relative="1" as="geometry">
            <mxPoint x="260" y="270" as="sourcePoint" />
            <mxPoint x="280" y="200" as="targetPoint" />
          </mxGeometry>
        </mxCell>
        <mxCell id="9N0QqS98CEpH2FjnTkVc-143" value="" style="endArrow=classic;html=1;" parent="1" edge="1">
          <mxGeometry width="50" height="50" relative="1" as="geometry">
            <mxPoint x="220" y="320" as="sourcePoint" />
            <mxPoint x="240" y="310" as="targetPoint" />
          </mxGeometry>
        </mxCell>
        <mxCell id="9N0QqS98CEpH2FjnTkVc-144" value="&lt;font face=&quot;Times New Roman&quot;&gt;x&lt;sub&gt;i&lt;/sub&gt;&lt;/font&gt;" style="text;html=1;strokeColor=none;fillColor=none;align=center;verticalAlign=middle;whiteSpace=wrap;rounded=0;" parent="1" vertex="1">
          <mxGeometry x="190" y="320" width="40" height="20" as="geometry" />
        </mxCell>
        <mxCell id="9N0QqS98CEpH2FjnTkVc-147" value="" style="endArrow=classic;html=1;entryX=1;entryY=0.5;entryDx=0;entryDy=0;exitX=0.25;exitY=0;exitDx=0;exitDy=0;" parent="1" source="9N0QqS98CEpH2FjnTkVc-148" target="9N0QqS98CEpH2FjnTkVc-115" edge="1">
          <mxGeometry width="50" height="50" relative="1" as="geometry">
            <mxPoint x="370" y="330" as="sourcePoint" />
            <mxPoint x="250" y="320" as="targetPoint" />
          </mxGeometry>
        </mxCell>
        <mxCell id="9N0QqS98CEpH2FjnTkVc-148" value="&lt;font face=&quot;Times New Roman&quot;&gt;Y&lt;sub&gt;i&lt;/sub&gt;&lt;/font&gt;" style="text;html=1;strokeColor=none;fillColor=none;align=center;verticalAlign=middle;whiteSpace=wrap;rounded=0;" parent="1" vertex="1">
          <mxGeometry x="360" y="336" width="30" height="20" as="geometry" />
        </mxCell>
        <mxCell id="9N0QqS98CEpH2FjnTkVc-149" value="" style="endArrow=classic;html=1;" parent="1" edge="1">
          <mxGeometry width="50" height="50" relative="1" as="geometry">
            <mxPoint x="350" y="240" as="sourcePoint" />
            <mxPoint x="480" y="200" as="targetPoint" />
          </mxGeometry>
        </mxCell>
        <mxCell id="9N0QqS98CEpH2FjnTkVc-150" value="" style="endArrow=classic;html=1;exitX=0;exitY=0.5;exitDx=0;exitDy=0;" parent="1" source="9N0QqS98CEpH2FjnTkVc-135" edge="1">
          <mxGeometry width="50" height="50" relative="1" as="geometry">
            <mxPoint x="360" y="250" as="sourcePoint" />
            <mxPoint x="480" y="200" as="targetPoint" />
          </mxGeometry>
        </mxCell>
        <mxCell id="vNxMpRLr9Yadr-kEDDQe-2" value="" style="shape=image;imageAspect=0;aspect=fixed;verticalLabelPosition=bottom;verticalAlign=top;fillColor=#000099;image=data:image/svg+xml,PHN2ZyB4bWxucz0iaHR0cDovL3d3dy53My5vcmcvMjAwMC9zdmciIHhtbG5zOnhsaW5rPSJodHRwOi8vd3d3LnczLm9yZy8xOTk5L3hsaW5rIiBoZWlnaHQ9IjI5LjgxNTVwdCIgdmVyc2lvbj0iMS4xIiB2aWV3Qm94PSItMC4yMzkwNTEgLTAuMjI3OTg5IDExMy43NDEgMjkuODE1NSIgd2lkdGg9IjExMy43NDFwdCI+JiN4YTs8ZGVmcz4mI3hhOzxwYXRoIGQ9Ik0xNS4xMzUyIDE2LjczNzJMMTYuNTgxOCAxMi45MTE2SDE2LjI4MjlDMTUuODE2NyAxNC4xNTQ5IDE0LjU0OTQgMTQuOTY3OSAxMy4xNzQ2IDE1LjMyNjVDMTIuOTIzNSAxNS4zODYzIDExLjc1MTkgMTUuNjk3MSA5LjQ1NjU0IDE1LjY5NzFIMi4yNDc1N0w4LjMzMjc1IDguNTU5OUM4LjQxNjQ0IDguNDY0MjYgOC40NDAzNSA4LjQyODM5IDguNDQwMzUgOC4zNjg2MkM4LjQ0MDM1IDguMzQ0NzEgOC40NDAzNSA4LjMwODg0IDguMzU2NjYgOC4xODkyOUwyLjc4NTU1IDAuNTczODQ4SDkuMzM2OTlDMTAuOTM5IDAuNTczODQ4IDEyLjAyNjkgMC43NDEyMiAxMi4xMzQ1IDAuNzY1MTMxQzEyLjc4MDEgMC44NjA3NzIgMTMuODIwMiAxLjA2NDAxIDE0Ljc2NDYgMS42NjE3N0MxNS4wNjM1IDEuODUzMDUgMTUuODc2NSAyLjM5MTAzIDE2LjI4MjkgMy4zNTk0SDE2LjU4MThMMTUuMTM1MiAwSDEuMDA0MjNDMC43MjkyNjUgMCAwLjcxNzMxIDAuMDExOTU1MiAwLjY4MTQ0NSAwLjA4MzY4NjJDMC42Njk0ODkgMC4xMTk1NTIgMC42Njk0ODkgMC4zNDY3IDAuNjY5NDg5IDAuNDc4MjA3TDYuOTkzNzcgOS4xMzM3NUwwLjgwMDk5NiAxNi4zOTA1QzAuNjgxNDQ1IDE2LjUzNCAwLjY4MTQ0NSAxNi41OTM4IDAuNjgxNDQ1IDE2LjYwNTdDMC42ODE0NDUgMTYuNzM3MiAwLjc4OTA0MSAxNi43MzcyIDEuMDA0MjMgMTYuNzM3MkgxNS4xMzUyWiIgaWQ9ImcwLTg4Ii8+JiN4YTs8cGF0aCBkPSJNMi4zNzUwOSAtNC45NzMzNUMyLjM3NTA5IC01LjE0ODY5IDIuMjQ3NTcgLTUuMjc2MjEgMi4wNjQyNiAtNS4yNzYyMUMxLjg1NzA0IC01LjI3NjIxIDEuNjI1OSAtNS4wODQ5MyAxLjYyNTkgLTQuODQ1ODNDMS42MjU5IC00LjY3MDQ5IDEuNzUzNDIgLTQuNTQyOTYgMS45MzY3NCAtNC41NDI5NkMyLjE0Mzk2IC00LjU0Mjk2IDIuMzc1MDkgLTQuNzM0MjUgMi4zNzUwOSAtNC45NzMzNVpNMS4yMTE0NiAtMi4wNDgzMkwwLjc4MTA3MSAtMC45NDg0NDNDMC43NDEyMiAtMC44Mjg4OTIgMC43MDEzNyAtMC43MzMyNSAwLjcwMTM3IC0wLjU5Nzc1OEMwLjcwMTM3IC0wLjIwNzIyMyAxLjAwNDIzIDAuMDc5NzAxMSAxLjQyNjY1IDAuMDc5NzAxMUMyLjE5OTc1IDAuMDc5NzAxMSAyLjUyNjUzIC0xLjAzNjExIDIuNTI2NTMgLTEuMTM5NzNDMi41MjY1MyAtMS4yMTk0MyAyLjQ2Mjc2IC0xLjI0MzM0IDIuNDA2OTcgLTEuMjQzMzRDMi4zMTEzMyAtMS4yNDMzNCAyLjI5NTM5IC0xLjE4NzU1IDIuMjcxNDggLTEuMTA3ODVDMi4wODgxNyAtMC40NzAyMzcgMS43NjEzOSAtMC4xNDM0NjIgMS40NDI1OSAtMC4xNDM0NjJDMS4zNDY5NSAtMC4xNDM0NjIgMS4yNTEzMSAtMC4xODMzMTMgMS4yNTEzMSAtMC4zOTg1MDZDMS4yNTEzMSAtMC41ODk3ODggMS4zMDcxIC0wLjczMzI1IDEuNDEwNzEgLTAuOTgwMzI0QzEuNDkwNDEgLTEuMTk1NTIgMS41NzAxMSAtMS40MTA3MSAxLjY1Nzc4IC0xLjYyNTlMMS45MDQ4NiAtMi4yNzE0OEMxLjk3NjU5IC0yLjQ1NDc5IDIuMDcyMjMgLTIuNzAxODcgMi4wNzIyMyAtMi44MzczNkMyLjA3MjIzIC0zLjIzNTg3IDEuNzUzNDIgLTMuNTE0ODIgMS4zNDY5NSAtMy41MTQ4MkMwLjU3Mzg0OCAtMy41MTQ4MiAwLjIzOTEwMyAtMi4zOTkgMC4yMzkxMDMgLTIuMjk1MzlDMC4yMzkxMDMgLTIuMjIzNjYgMC4yOTQ4OTQgLTIuMTkxNzggMC4zNTg2NTUgLTIuMTkxNzhDMC40NjIyNjcgLTIuMTkxNzggMC40NzAyMzcgLTIuMjM5NiAwLjQ5NDE0NyAtMi4zMTkzQzAuNzE3MzEgLTMuMDc2NDYgMS4wODM5NCAtMy4yOTE2NiAxLjMyMzA0IC0zLjI5MTY2QzEuNDM0NjIgLTMuMjkxNjYgMS41MTQzMiAtMy4yNTE4MSAxLjUxNDMyIC0zLjAyODY0QzEuNTE0MzIgLTIuOTQ4OTQgMS41MDYzNSAtMi44MzczNiAxLjQyNjY1IC0yLjU5ODI2TDEuMjExNDYgLTIuMDQ4MzJaIiBpZD0iZzItMTA1Ii8+JiN4YTs8cGF0aCBkPSJNMi4wODgxNyAtNS4yOTIxNUMyLjA5NjE0IC01LjMwODA5IDIuMTIwMDUgLTUuNDExNzEgMi4xMjAwNSAtNS40MTk2OEMyLjEyMDA1IC01LjQ1OTUzIDIuMDg4MTcgLTUuNTMxMjYgMS45OTI1MyAtNS41MzEyNkwxLjE4NzU1IC01LjQ2NzVDMC44OTI2NTMgLTUuNDQzNTkgMC44Mjg4OTIgLTUuNDM1NjIgMC44Mjg4OTIgLTUuMjkyMTVDMC44Mjg4OTIgLTUuMTgwNTcgMC45NDA0NzMgLTUuMTgwNTcgMS4wMzYxMSAtNS4xODA1N0MxLjQxODY4IC01LjE4MDU3IDEuNDE4NjggLTUuMTMyNzUgMS40MTg2OCAtNS4wNjEwMkMxLjQxODY4IC01LjAzNzExIDEuNDE4NjggLTUuMDIxMTcgMS4zNzg4MyAtNC44Nzc3MUwwLjM5MDUzNSAtMC45MjQ1MzNDMC4zNTg2NTUgLTAuNzk3MDExIDAuMzU4NjU1IC0wLjY3NzQ2IDAuMzU4NjU1IC0wLjY2OTQ4OUMwLjM1ODY1NSAtMC4xNzUzNDIgMC43NjUxMzEgMC4wNzk3MDExIDEuMTYzNjQgMC4wNzk3MDExQzEuNTA2MzUgMC4wNzk3MDExIDEuNjg5NjYgLTAuMTkxMjgzIDEuNzc3MzMgLTAuMzY2NjI1QzEuOTIwOCAtMC42Mjk2MzkgMi4wNDAzNSAtMS4wOTk4OCAyLjA0MDM1IC0xLjEzOTczQzIuMDQwMzUgLTEuMTg3NTUgMi4wMTY0NCAtMS4yNDMzNCAxLjkxMjgzIC0xLjI0MzM0QzEuODQxMSAtMS4yNDMzNCAxLjgxNzE5IC0xLjIwMzQ5IDEuODE3MTkgLTEuMTk1NTJDMS44MDEyNSAtMS4xNzE2MSAxLjc2MTM5IC0xLjAyODE0IDEuNzM3NDggLTAuOTQwNDczQzEuNjE3OTMgLTAuNDc4MjA3IDEuNDY2NSAtMC4xNDM0NjIgMS4xNzk1OCAtMC4xNDM0NjJDMC45ODgyOTQgLTAuMTQzNDYyIDAuOTMyNTAzIC0wLjMyNjc3NSAwLjkzMjUwMyAtMC41MTgwNTdDMC45MzI1MDMgLTAuNjY5NDg5IDAuOTU2NDEzIC0wLjc1NzE2MSAwLjk4MDMyNCAtMC44NjA3NzJMMi4wODgxNyAtNS4yOTIxNVoiIGlkPSJnMi0xMDgiLz4mI3hhOzxwYXRoIGQ9Ik0zLjk2OTEyIC0yLjEzNTk5QzMuOTY5MTIgLTIuOTE3MDYgMy40MTEyMSAtMy41MTQ4MiAyLjU4MjMyIC0zLjUxNDgyQzEuNDUwNTYgLTMuNTE0ODIgMC4zNTA2ODUgLTIuNDE0OTQgMC4zNTA2ODUgLTEuMjk5MTNDMC4zNTA2ODUgLTAuNDg2MTc3IDAuOTI0NTMzIDAuMDc5NzAxMSAxLjczNzQ4IDAuMDc5NzAxMUMyLjg3NzIxIDAuMDc5NzAxMSAzLjk2OTEyIC0xLjAzNjExIDMuOTY5MTIgLTIuMTM1OTlaTTEuNzQ1NDUgLTAuMTQzNDYyQzEuNDY2NSAtMC4xNDM0NjIgMC45OTYyNjQgLTAuMjg2OTI0IDAuOTk2MjY0IC0xLjAyMDE3QzAuOTk2MjY0IC0xLjM0Njk1IDEuMTQ3NyAtMi4yMDc3MiAxLjUzMDI2IC0yLjcwMTg3QzEuOTIwOCAtMy4yMDM5OSAyLjM1OTE1IC0zLjI5MTY2IDIuNTc0MzUgLTMuMjkxNjZDMi45MDExMiAtMy4yOTE2NiAzLjMyMzU0IC0zLjA5MjQgMy4zMjM1NCAtMi40MjI5MUMzLjMyMzU0IC0yLjEwNDExIDMuMTgwMDcgLTEuMzQ2OTUgMi44NzcyMSAtMC44Njg3NDJDMi41ODIzMiAtMC40MTQ0NDYgMi4xNDM5NiAtMC4xNDM0NjIgMS43NDU0NSAtMC4xNDM0NjJaIiBpZD0iZzItMTExIi8+JiN4YTs8cGF0aCBkPSJNMy4yMTE5NiAtMi45OTY3NkMzLjAyODY0IC0yLjk2NDg4IDIuODYxMjcgLTIuODIxNDIgMi44NjEyNyAtMi42MjIxN0MyLjg2MTI3IC0yLjQ3ODcgMi45NTY5MSAtMi4zNzUwOSAzLjEzMjI1IC0yLjM3NTA5QzMuMjUxODEgLTIuMzc1MDkgMy40OTg4OCAtMi40NjI3NiAzLjQ5ODg4IC0yLjgyMTQyQzMuNDk4ODggLTMuMzE1NTcgMi45ODA4MiAtMy41MTQ4MiAyLjQ4NjY3IC0zLjUxNDgyQzEuNDE4NjggLTMuNTE0ODIgMS4wODM5NCAtMi43NTc2NiAxLjA4Mzk0IC0yLjM1MTE4QzEuMDgzOTQgLTIuMjcxNDggMS4wODM5NCAtMS45ODQ1NiAxLjM3ODgzIC0xLjc2MTM5QzEuNTYyMTQgLTEuNjE3OTMgMS42OTc2MyAtMS41OTQwMiAyLjExMjA4IC0xLjUxNDMyQzIuMzkxMDMgLTEuNDU4NTMgMi44NDUzMyAtMS4zNzg4MyAyLjg0NTMzIC0wLjk2NDM4NEMyLjg0NTMzIC0wLjc1NzE2MSAyLjY5MzkgLTAuNDk0MTQ3IDIuNDcwNzMgLTAuMzQyNzE1QzIuMTc1ODQgLTAuMTUxNDMyIDEuNzg1MzEgLTAuMTQzNDYyIDEuNjU3NzggLTAuMTQzNDYyQzEuNDY2NSAtMC4xNDM0NjIgMC45MjQ1MzMgLTAuMTc1MzQyIDAuNzI1MjggLTAuNDk0MTQ3QzEuMTMxNzYgLTAuNTEwMDg3IDEuMTg3NTUgLTAuODM2ODYyIDEuMTg3NTUgLTAuOTMyNTAzQzEuMTg3NTUgLTEuMTcxNjEgMC45NzIzNTQgLTEuMjI3NCAwLjg3NjcxMiAtMS4yMjc0QzAuNzQ5MTkxIC0xLjIyNzQgMC40MjI0MTYgLTEuMTMxNzYgMC40MjI0MTYgLTAuNjkzNEMwLjQyMjQxNiAtMC4yMjMxNjMgMC45MTY1NjMgMC4wNzk3MDExIDEuNjU3NzggMC4wNzk3MDExQzMuMDQ0NTggMC4wNzk3MDExIDMuMzM5NDggLTAuOTAwNjIzIDMuMzM5NDggLTEuMjM1MzdDMy4zMzk0OCAtMS45NTI2OCAyLjU1ODQxIC0yLjEwNDExIDIuMjYzNTEgLTIuMTU5OUMxLjg4MDk1IC0yLjIzMTYzIDEuNTcwMTEgLTIuMjg3NDIgMS41NzAxMSAtMi42MjIxN0MxLjU3MDExIC0yLjc2NTYzIDEuNzA1NiAtMy4yOTE2NiAyLjQ3ODcgLTMuMjkxNjZDMi43ODE1NyAtMy4yOTE2NiAzLjA5MjQgLTMuMjAzOTkgMy4yMTE5NiAtMi45OTY3NloiIGlkPSJnMi0xMTUiLz4mI3hhOzxwYXRoIGQ9Ik0zLjg4NTQzIDIuOTA1MTFDMy44ODU0MyAyLjg2OTI0IDMuODg1NDMgMi44NDUzMyAzLjY4MjE5IDIuNjQyMDlDMi40ODY2NyAxLjQzNDYyIDEuODE3MTkgLTAuNTM3OTgzIDEuODE3MTkgLTIuOTc2ODRDMS44MTcxOSAtNS4yOTYxNCAyLjM3OTA4IC03LjI5MjY1IDMuNzY1ODggLTguNzAzMzZDMy44ODU0MyAtOC44MTA5NiAzLjg4NTQzIC04LjgzNDg3IDMuODg1NDMgLTguODcwNzNDMy44ODU0MyAtOC45NDI0NyAzLjgyNTY1IC04Ljk2NjM4IDMuNzc3ODMgLTguOTY2MzhDMy42MjI0MiAtOC45NjYzOCAyLjY0MjA5IC04LjEwNTYgMi4wNTYyOSAtNi45MzRDMS40NDY1OCAtNS43MjY1MyAxLjE3MTYxIC00LjQ0NzMyIDEuMTcxNjEgLTIuOTc2ODRDMS4xNzE2MSAtMS45MTI4MyAxLjMzODk4IC0wLjQ5MDE2MiAxLjk2MDY1IDAuNzg5MDQxQzIuNjY2IDIuMjIzNjYgMy42NDYzMyAzLjAwMDc1IDMuNzc3ODMgMy4wMDA3NUMzLjgyNTY1IDMuMDAwNzUgMy44ODU0MyAyLjk3Njg0IDMuODg1NDMgMi45MDUxMVoiIGlkPSJnNC00MCIvPiYjeGE7PHBhdGggZD0iTTMuMzcxMzYgLTIuOTc2ODRDMy4zNzEzNiAtMy44ODU0MyAzLjI1MTgxIC01LjM2Nzg3IDIuNTgyMzIgLTYuNzU0NjdDMS44NzY5NiAtOC4xODkyOSAwLjg5NjYzOCAtOC45NjYzOCAwLjc2NTEzMSAtOC45NjYzOEMwLjcxNzMxIC04Ljk2NjM4IDAuNjU3NTM0IC04Ljk0MjQ3IDAuNjU3NTM0IC04Ljg3MDczQzAuNjU3NTM0IC04LjgzNDg3IDAuNjU3NTM0IC04LjgxMDk2IDAuODYwNzcyIC04LjYwNzcyQzIuMDU2MjkgLTcuNDAwMjUgMi43MjU3OCAtNS40Mjc2NSAyLjcyNTc4IC0yLjk4ODc5QzIuNzI1NzggLTAuNjY5NDg5IDIuMTYzODkgMS4zMjcwMiAwLjc3NzA4NiAyLjczNzczQzAuNjU3NTM0IDIuODQ1MzMgMC42NTc1MzQgMi44NjkyNCAwLjY1NzUzNCAyLjkwNTExQzAuNjU3NTM0IDIuOTc2ODQgMC43MTczMSAzLjAwMDc1IDAuNzY1MTMxIDMuMDAwNzVDMC45MjA1NDggMy4wMDA3NSAxLjkwMDg3IDIuMTM5OTggMi40ODY2NyAwLjk2ODM2OUMzLjA5NjM5IC0wLjI1MTA1OSAzLjM3MTM2IC0xLjU0MjIyIDMuMzcxMzYgLTIuOTc2ODRaIiBpZD0iZzQtNDEiLz4mI3hhOzxwYXRoIGQ9Ik0yLjMzMTI2IDAuMDQ3ODIwN0MyLjMzMTI2IC0wLjY0NTU3OSAyLjEwNDExIC0xLjE1OTY1IDEuNjEzOTUgLTEuMTU5NjVDMS4yMzEzOCAtMS4xNTk2NSAxLjA0MDEgLTAuODQ4ODE3IDEuMDQwMSAtMC41ODU4MDNTMS4yMTk0MyAwIDEuNjI1OSAwQzEuNzgxMzIgMCAxLjkxMjgzIC0wLjA0NzgyMDcgMi4wMjA0MiAtMC4xNTU0MTdDMi4wNDQzMyAtMC4xNzkzMjggMi4wNTYyOSAtMC4xNzkzMjggMi4wNjgyNCAtMC4xNzkzMjhDMi4wOTIxNSAtMC4xNzkzMjggMi4wOTIxNSAtMC4wMTE5NTUyIDIuMDkyMTUgMC4wNDc4MjA3QzIuMDkyMTUgMC40NDIzNDEgMi4wMjA0MiAxLjIxOTQzIDEuMzI3MDIgMS45OTY1MUMxLjE5NTUyIDIuMTM5OTggMS4xOTU1MiAyLjE2Mzg5IDEuMTk1NTIgMi4xODc4QzEuMTk1NTIgMi4yNDc1NyAxLjI1NTI5IDIuMzA3MzUgMS4zMTUwNyAyLjMwNzM1QzEuNDEwNzEgMi4zMDczNSAyLjMzMTI2IDEuNDIyNjcgMi4zMzEyNiAwLjA0NzgyMDdaIiBpZD0iZzMtNTkiLz4mI3hhOzxwYXRoIGQ9Ik03LjAyOTY0IC02LjgzODM2TDcuMzA0NjEgLTcuMTEzMzNDNy44MzA2NCAtNy42NTEzMSA4LjI3Mjk4IC03Ljc4MjgxIDguNjkxNDEgLTcuODE4NjhDOC44MjI5MSAtNy44MzA2NCA4LjkzMDUxIC03Ljg0MjU5IDguOTMwNTEgLTguMDQ1ODNDOC45MzA1MSAtOC4xNjUzOCA4LjgxMDk2IC04LjE2NTM4IDguNzg3MDUgLTguMTY1MzhDOC42NDM1OSAtOC4xNjUzOCA4LjQ4ODE3IC04LjE0MTQ3IDguMzQ0NzEgLTguMTQxNDdINy44NTQ1NUM3LjUwNzg1IC04LjE0MTQ3IDcuMTM3MjQgLTguMTY1MzggNi44MDI0OSAtOC4xNjUzOEM2LjcxODggLTguMTY1MzggNi41ODczIC04LjE2NTM4IDYuNTg3MyAtNy45MzgyM0M2LjU4NzMgLTcuODMwNjQgNi43MDY4NSAtNy44MTg2OCA2Ljc0MjcxIC03LjgxODY4QzcuMTAxMzcgLTcuNzk0NzcgNy4xMDEzNyAtNy42MTU0NCA3LjEwMTM3IC03LjU0MzcxQzcuMTAxMzcgLTcuNDEyMiA3LjAwNTczIC03LjIzMjg4IDYuNzY2NjMgLTYuOTU3OTFMMy45MjEzIC0zLjY5NDE1TDIuNTcwMzYgLTcuMzI4NTJDMi40OTg2MyAtNy40OTU4OSAyLjQ5ODYzIC03LjUxOTggMi40OTg2MyAtNy41NDM3MUMyLjQ5ODYzIC03Ljc5NDc3IDIuOTg4NzkgLTcuODE4NjggMy4xMzIyNSAtNy44MTg2OFMzLjQwNzIyIC03LjgxODY4IDMuNDA3MjIgLTguMDMzODdDMy40MDcyMiAtOC4xNjUzOCAzLjI5OTYzIC04LjE2NTM4IDMuMjI3OSAtOC4xNjUzOEMzLjAyNDY2IC04LjE2NTM4IDIuNzg1NTUgLTguMTQxNDcgMi41ODIzMiAtOC4xNDE0N0gxLjI1NTI5QzEuMDQwMSAtOC4xNDE0NyAwLjgxMjk1MSAtOC4xNjUzOCAwLjYwOTcxNCAtOC4xNjUzOEMwLjUyNjAyNyAtOC4xNjUzOCAwLjM5NDUyMSAtOC4xNjUzOCAwLjM5NDUyMSAtNy45MzgyM0MwLjM5NDUyMSAtNy44MTg2OCAwLjUwMjExNyAtNy44MTg2OCAwLjY4MTQ0NSAtNy44MTg2OEMxLjI2NzI1IC03LjgxODY4IDEuMzc0ODQgLTcuNzExMDggMS40ODI0NCAtNy40MzYxMUwyLjk2NDg4IC0zLjQ1NTA0QzIuOTc2ODQgLTMuNDE5MTggMy4wMTI3IC0zLjI4NzY3IDMuMDEyNyAtMy4yNTE4MVMyLjQyNjkgLTAuODYwNzcyIDIuMzkxMDMgLTAuNzQxMjJDMi4yOTUzOSAtMC40MTg0MzEgMi4xNzU4NCAtMC4zNTg2NTUgMS40MTA3MSAtMC4zNDY3QzEuMjA3NDcgLTAuMzQ2NyAxLjExMTgzIC0wLjM0NjcgMS4xMTE4MyAtMC4xMTk1NTJDMS4xMTE4MyAwIDEuMjQzMzQgMCAxLjI3OTIgMEMxLjQ5NDQgMCAxLjc0NTQ1IC0wLjAyMzkxMDMgMS45NzI2IC0wLjAyMzkxMDNIMy4zODMzMUMzLjU5ODUxIC0wLjAyMzkxMDMgMy44NDk1NiAwIDQuMDY0NzYgMEM0LjE0ODQ0IDAgNC4yOTE5MSAwIDQuMjkxOTEgLTAuMjE1MTkzQzQuMjkxOTEgLTAuMzQ2NyA0LjIwODIyIC0wLjM0NjcgNC4wMDQ5OCAtMC4zNDY3QzMuMjYzNzYgLTAuMzQ2NyAzLjI2Mzc2IC0wLjQzMDM4NiAzLjI2Mzc2IC0wLjU2MTg5M0MzLjI2Mzc2IC0wLjY0NTU3OSAzLjM1OTQgLTEuMDI4MTQgMy40MTkxOCAtMS4yNjcyNUwzLjg0OTU2IC0yLjk4ODc5QzMuOTIxMyAtMy4yMzk4NSAzLjkyMTMgLTMuMjYzNzYgNC4wMjg4OSAtMy4zODMzMUw3LjAyOTY0IC02LjgzODM2WiIgaWQ9ImczLTg5Ii8+JiN4YTs8cGF0aCBkPSJNMy4wMzY2MSAtNy45OTgwMUMzLjA0ODU3IC04LjA0NTgzIDMuMDcyNDggLTguMTE3NTYgMy4wNzI0OCAtOC4xNzczM0MzLjA3MjQ4IC04LjI5Njg5IDIuOTUyOTMgLTguMjk2ODkgMi45MjkwMiAtOC4yOTY4OUMyLjkxNzA2IC04LjI5Njg5IDIuNDg2NjcgLTguMjYxMDIgMi4yNzE0OCAtOC4yMzcxMUMyLjA2ODI0IC04LjIyNTE2IDEuODg4OTIgLTguMjAxMjUgMS42NzM3MiAtOC4xODkyOUMxLjM4NjggLTguMTY1MzggMS4zMDMxMSAtOC4xNTM0MiAxLjMwMzExIC03LjkzODIzQzEuMzAzMTEgLTcuODE4NjggMS40MjI2NyAtNy44MTg2OCAxLjU0MjIyIC03LjgxODY4QzIuMTUxOTMgLTcuODE4NjggMi4xNTE5MyAtNy43MTEwOCAyLjE1MTkzIC03LjU5MTUzQzIuMTUxOTMgLTcuNTQzNzEgMi4xNTE5MyAtNy41MTk4IDIuMDkyMTUgLTcuMzA0NjFMMC42MDk3MTQgLTEuMzc0ODRDMC41NzM4NDggLTEuMjQzMzQgMC41NDk5MzggLTEuMTQ3NyAwLjU0OTkzOCAtMC45NTY0MTNDMC41NDk5MzggLTAuMzU4NjU1IDAuOTkyMjc5IDAuMTE5NTUyIDEuNjAxOTkgMC4xMTk1NTJDMS45OTY1MSAwLjExOTU1MiAyLjI1OTUzIC0wLjE0MzQ2MiAyLjQ1MDgxIC0wLjUxNDA3MkMyLjY1NDA1IC0wLjkwODU5MyAyLjgyMTQyIC0xLjY2MTc3IDIuODIxNDIgLTEuNzA5NTlDMi44MjE0MiAtMS43NjkzNiAyLjc3MzYgLTEuODE3MTkgMi43MDE4NyAtMS44MTcxOUMyLjU5NDI3IC0xLjgxNzE5IDIuNTgyMzIgLTEuNzU3NDEgMi41MzQ1IC0xLjU3ODA4QzIuMzE5MyAtMC43NTMxNzYgMi4xMDQxMSAtMC4xMTk1NTIgMS42MjU5IC0wLjExOTU1MkMxLjI2NzI1IC0wLjExOTU1MiAxLjI2NzI1IC0wLjUwMjExNyAxLjI2NzI1IC0wLjY2OTQ4OUMxLjI2NzI1IC0wLjcxNzMxIDEuMjY3MjUgLTAuOTY4MzY5IDEuMzUwOTMgLTEuMzAzMTFMMy4wMzY2MSAtNy45OTgwMVoiIGlkPSJnMy0xMDgiLz4mI3hhOzxwYXRoIGQ9Ik01LjQ1MTU2IC0zLjI4NzY3QzUuNDUxNTYgLTQuNDIzNDEgNC43MTAzNCAtNS4yNzIyMyAzLjYyMjQyIC01LjI3MjIzQzIuMDQ0MzMgLTUuMjcyMjMgMC40OTAxNjIgLTMuNTUwNjggMC40OTAxNjIgLTEuODY1MDFDMC40OTAxNjIgLTAuNzI5MjY1IDEuMjMxMzggMC4xMTk1NTIgMi4zMTkzIDAuMTE5NTUyQzMuOTA5MzQgMC4xMTk1NTIgNS40NTE1NiAtMS42MDE5OSA1LjQ1MTU2IC0zLjI4NzY3Wk0yLjMzMTI2IC0wLjExOTU1MkMxLjczMzUgLTAuMTE5NTUyIDEuMjkxMTYgLTAuNTk3NzU4IDEuMjkxMTYgLTEuNDM0NjJDMS4yOTExNiAtMS45ODQ1NiAxLjU3ODA4IC0zLjIwMzk5IDEuOTEyODMgLTMuODAxNzRDMi40NTA4MSAtNC43MjIyOSAzLjEyMDMgLTUuMDMzMTMgMy42MTA0NiAtNS4wMzMxM0M0LjE5NjI2IC01LjAzMzEzIDQuNjUwNTYgLTQuNTU0OTIgNC42NTA1NiAtMy43MTgwNkM0LjY1MDU2IC0zLjIzOTg1IDQuMzk5NSAtMS45NjA2NSAzLjk0NTIxIC0xLjIzMTM4QzMuNDU1MDQgLTAuNDMwMzg2IDIuNzk3NTEgLTAuMTE5NTUyIDIuMzMxMjYgLTAuMTE5NTUyWiIgaWQ9ImczLTExMSIvPiYjeGE7PHBhdGggZD0iTTIuNzI1NzggLTIuMzkxMDNDMi45MjkwMiAtMi4zNTUxNyAzLjI1MTgxIC0yLjI4MzQ0IDMuMzIzNTQgLTIuMjcxNDhDMy40Nzg5NSAtMi4yMjM2NiA0LjAxNjk0IC0yLjAzMjM4IDQuMDE2OTQgLTEuNDU4NTNDNC4wMTY5NCAtMS4wODc5MiAzLjY4MjE5IC0wLjExOTU1MiAyLjI5NTM5IC0wLjExOTU1MkMyLjA0NDMzIC0wLjExOTU1MiAxLjE0NzcgLTAuMTU1NDE3IDAuOTA4NTkzIC0wLjgxMjk1MUMxLjM4NjggLTAuNzUzMTc2IDEuNjI1OSAtMS4xMjM3OSAxLjYyNTkgLTEuMzg2OEMxLjYyNTkgLTEuNjM3ODYgMS40NTg1MyAtMS43NjkzNiAxLjIxOTQzIC0xLjc2OTM2QzAuOTU2NDEzIC0xLjc2OTM2IDAuNjA5NzE0IC0xLjU2NjEzIDAuNjA5NzE0IC0xLjAyODE0QzAuNjA5NzE0IC0wLjMyMjc5IDEuMzI3MDIgMC4xMTk1NTIgMi4yODM0NCAwLjExOTU1MkM0LjEwMDYyIDAuMTE5NTUyIDQuNjM4NjEgLTEuMjE5NDMgNC42Mzg2MSAtMS44NDExQzQuNjM4NjEgLTIuMDIwNDIgNC42Mzg2MSAtMi4zNTUxNyA0LjI1NjA0IC0yLjczNzczQzMuOTU3MTYgLTMuMDI0NjYgMy42NzAyNCAtMy4wODQ0MyAzLjAyNDY2IC0zLjIxNTk0QzIuNzAxODcgLTMuMjg3NjcgMi4xODc4IC0zLjM5NTI3IDIuMTg3OCAtMy45MzMyNUMyLjE4NzggLTQuMTcyMzUgMi40MDI5OSAtNS4wMzMxMyAzLjUzODczIC01LjAzMzEzQzQuMDQwODUgLTUuMDMzMTMgNC41MzEwMSAtNC44NDE4NCA0LjY1MDU2IC00LjQxMTQ2QzQuMTI0NTMgLTQuNDExNDYgNC4xMDA2MiAtMy45NTcxNiA0LjEwMDYyIC0zLjk0NTIxQzQuMTAwNjIgLTMuNjk0MTUgNC4zMjc3NyAtMy42MjI0MiA0LjQzNTM3IC0zLjYyMjQyQzQuNjAyNzQgLTMuNjIyNDIgNC45Mzc0OCAtMy43NTM5MiA0LjkzNzQ4IC00LjI1NjA0UzQuNDgzMTkgLTUuMjcyMjMgMy41NTA2OCAtNS4yNzIyM0MxLjk4NDU2IC01LjI3MjIzIDEuNTY2MTMgLTQuMDQwODUgMS41NjYxMyAtMy41NTA2OEMxLjU2NjEzIC0yLjY0MjA5IDIuNDUwODEgLTIuNDUwODEgMi43MjU3OCAtMi4zOTEwM1oiIGlkPSJnMy0xMTUiLz4mI3hhOzxwYXRoIGQ9Ik0yLjQwMjk5IC00LjgwNTk4SDMuNTAyODZDMy43MzAwMSAtNC44MDU5OCAzLjg0OTU2IC00LjgwNTk4IDMuODQ5NTYgLTUuMDIxMTdDMy44NDk1NiAtNS4xNTI2OCAzLjc3NzgzIC01LjE1MjY4IDMuNTM4NzMgLTUuMTUyNjhIMi40ODY2N0wyLjkyOTAyIC02Ljg5ODEzQzIuOTc2ODQgLTcuMDY1NSAyLjk3Njg0IC03LjA4OTQxIDIuOTc2ODQgLTcuMTczMUMyLjk3Njg0IC03LjM2NDM4IDIuODIxNDIgLTcuNDcxOTggMi42NjYgLTcuNDcxOThDMi41NzAzNiAtNy40NzE5OCAyLjI5NTM5IC03LjQzNjExIDIuMTk5NzUgLTcuMDUzNTVMMS43MzM1IC01LjE1MjY4SDAuNjA5NzE0QzAuMzcwNjEgLTUuMTUyNjggMC4yNjMwMTQgLTUuMTUyNjggMC4yNjMwMTQgLTQuOTI1NTNDMC4yNjMwMTQgLTQuODA1OTggMC4zNDY3IC00LjgwNTk4IDAuNTczODQ4IC00LjgwNTk4SDEuNjM3ODZMMC44NDg4MTcgLTEuNjQ5ODFDMC43NTMxNzYgLTEuMjMxMzggMC43MTczMSAtMS4xMTE4MyAwLjcxNzMxIC0wLjk1NjQxM0MwLjcxNzMxIC0wLjM5NDUyMSAxLjExMTgzIDAuMTE5NTUyIDEuNzgxMzIgMC4xMTk1NTJDMi45ODg3OSAwLjExOTU1MiAzLjYzNDM3IC0xLjYyNTkgMy42MzQzNyAtMS43MDk1OUMzLjYzNDM3IC0xLjc4MTMyIDMuNTg2NTUgLTEuODE3MTkgMy41MTQ4MiAtMS44MTcxOUMzLjQ5MDkxIC0xLjgxNzE5IDMuNDQzMDkgLTEuODE3MTkgMy40MTkxOCAtMS43NjkzNkMzLjQwNzIyIC0xLjc1NzQxIDMuMzk1MjcgLTEuNzQ1NDUgMy4zMTE1OCAtMS41NTQxN0MzLjA2MDUyIC0wLjk1NjQxMyAyLjUxMDU5IC0wLjExOTU1MiAxLjgxNzE5IC0wLjExOTU1MkMxLjQ1ODUzIC0wLjExOTU1MiAxLjQzNDYyIC0wLjQxODQzMSAxLjQzNDYyIC0wLjY4MTQ0NUMxLjQzNDYyIC0wLjY5MzQgMS40MzQ2MiAtMC45MjA1NDggMS40NzA0OSAtMS4wNjQwMUwyLjQwMjk5IC00LjgwNTk4WiIgaWQ9ImczLTExNiIvPiYjeGE7PHBhdGggZD0iTTQuMTEyNTggLTAuNzI5MjY1QzQuMzc1NTkgLTAuMDExOTU1MiA1LjExNjgxIDAuMTE5NTUyIDUuNTcxMTEgMC4xMTk1NTJDNi40Nzk3IDAuMTE5NTUyIDcuMDE3NjggLTAuNjY5NDg5IDcuMzUyNDMgLTEuNDk0NEM3LjYyNzQgLTIuMTg3OCA4LjA2OTc0IC0zLjc2NTg4IDguMDY5NzQgLTQuNDcxMjNDOC4wNjk3NCAtNS4yMDA1IDcuNjk5MTMgLTUuMjcyMjMgNy41OTE1MyAtNS4yNzIyM0M3LjMwNDYxIC01LjI3MjIzIDcuMDQxNTkgLTQuOTg1MzEgNy4wNDE1OSAtNC43NDYyQzcuMDQxNTkgLTQuNjAyNzQgNy4xMjUyOCAtNC41MTkwNSA3LjE4NTA2IC00LjQ3MTIzQzcuMjkyNjUgLTQuMzYzNjQgNy42MDM0OSAtNC4wNDA4NSA3LjYwMzQ5IC0zLjQxOTE4QzcuNjAzNDkgLTMuMDEyNyA3LjI2ODc0IC0xLjg4ODkyIDcuMDE3NjggLTEuMzI3MDJDNi42ODI5NCAtMC41OTc3NTggNi4yNDA2IC0wLjExOTU1MiA1LjYxODkzIC0wLjExOTU1MkM0Ljk0OTQ0IC0wLjExOTU1MiA0LjczNDI1IC0wLjYyMTY2OSA0LjczNDI1IC0xLjE3MTYxQzQuNzM0MjUgLTEuNTE4MzEgNC44NDE4NCAtMS45MzY3NCA0Ljg4OTY2IC0yLjEzOTk4TDUuMzkxNzggLTQuMTQ4NDRDNS40NTE1NiAtNC4zODc1NSA1LjU1OTE1IC00LjgwNTk4IDUuNTU5MTUgLTQuODUzOEM1LjU1OTE1IC01LjAzMzEzIDUuNDE1NjkgLTUuMTUyNjggNS4yMzYzNiAtNS4xNTI2OEM0Ljg4OTY2IC01LjE1MjY4IDQuODA1OTggLTQuODUzOCA0LjczNDI1IC00LjU2Njg3QzQuNjE0NjkgLTQuMTAwNjIgNC4xMTI1OCAtMi4wODAyIDQuMDY0NzYgLTEuODE3MTlDNC4wMTY5NCAtMS42MTM5NSA0LjAxNjk0IC0xLjQ4MjQ0IDQuMDE2OTQgLTEuMjE5NDNDNC4wMTY5NCAtMC45MzI1MDMgMy42MzQzNyAtMC40NzgyMDcgMy42MjI0MiAtMC40NTQyOTZDMy40OTA5MSAtMC4zMjI3OSAzLjI5OTYzIC0wLjExOTU1MiAyLjkyOTAyIC0wLjExOTU1MkMxLjk4NDU2IC0wLjExOTU1MiAxLjk4NDU2IC0xLjAxNjE5IDEuOTg0NTYgLTEuMjE5NDNDMS45ODQ1NiAtMS42MDE5OSAyLjA2ODI0IC0yLjEyODAyIDIuNjA2MjMgLTMuNTUwNjhDMi43NDk2OSAtMy45MjEzIDIuODA5NDYgLTQuMDc2NzEgMi44MDk0NiAtNC4zMTU4MkMyLjgwOTQ2IC00LjgxNzkzIDIuNDUwODEgLTUuMjcyMjMgMS44NjUwMSAtNS4yNzIyM0MwLjc2NTEzMSAtNS4yNzIyMyAwLjMyMjc5IC0zLjUzODczIDAuMzIyNzkgLTMuNDQzMDlDMC4zMjI3OSAtMy4zOTUyNyAwLjM3MDYxIC0zLjMzNTQ5IDAuNDU0Mjk2IC0zLjMzNTQ5QzAuNTYxODkzIC0zLjMzNTQ5IDAuNTczODQ4IC0zLjM4MzMxIDAuNjIxNjY5IC0zLjU1MDY4QzAuOTIwNTQ4IC00LjYwMjc0IDEuMzg2OCAtNS4wMzMxMyAxLjgyOTE0IC01LjAzMzEzQzEuOTQ4NjkgLTUuMDMzMTMgMi4xMzk5OCAtNS4wMjExNyAyLjEzOTk4IC00LjYzODYxQzIuMTM5OTggLTQuNTc4ODMgMi4xMzk5OCAtNC4zMjc3NyAxLjkzNjc0IC0zLjgwMTc0QzEuMzc0ODQgLTIuMzA3MzUgMS4yNTUyOSAtMS44MTcxOSAxLjI1NTI5IC0xLjM2Mjg5QzEuMjU1MjkgLTAuMTA3NTk3IDIuMjgzNDQgMC4xMTk1NTIgMi44OTMxNSAwLjExOTU1MkMzLjA5NjM5IDAuMTE5NTUyIDMuNjM0MzcgMC4xMTk1NTIgNC4xMTI1OCAtMC43MjkyNjVaIiBpZD0iZzMtMTE5Ii8+JiN4YTs8cGF0aCBkPSJNMS45MDA4NyAtOC41MzU5OUMxLjkwMDg3IC04Ljc1MTE4IDEuOTAwODcgLTguOTY2MzggMS42NjE3NyAtOC45NjYzOFMxLjQyMjY3IC04Ljc1MTE4IDEuNDIyNjcgLTguNTM1OTlWMi41NTg0MUMxLjQyMjY3IDIuNzczNiAxLjQyMjY3IDIuOTg4NzkgMS42NjE3NyAyLjk4ODc5UzEuOTAwODcgMi43NzM2IDEuOTAwODcgMi41NTg0MVYtOC41MzU5OVoiIGlkPSJnMS0xMDYiLz4mI3hhOzwvZGVmcz4mI3hhOzxnIGlkPSJwYWdlMSIgdHJhbnNmb3JtPSJtYXRyaXgoMS4xMyAwIDAgMS4xMyAtNjMuOTg2IC02MS4wMjUxKSI+JiN4YTs8dXNlIHg9IjU2LjQxMzMiIHhsaW5rOmhyZWY9IiNnMC04OCIgeT0iNTQuOTkzOCIvPiYjeGE7PHVzZSB4PSI2My42MDYiIHhsaW5rOmhyZWY9IiNnMi0xMDUiIHk9IjgwLjE4ODEiLz4mI3hhOzx1c2UgeD0iNzUuNjc0NCIgeGxpbms6aHJlZj0iI2czLTEwOCIgeT0iNjYuMzUxMiIvPiYjeGE7PHVzZSB4PSI3OS40MTEyIiB4bGluazpocmVmPSIjZzMtMTExIiB5PSI2Ni4zNTEyIi8+JiN4YTs8dXNlIHg9Ijg1LjAxNzYiIHhsaW5rOmhyZWY9IiNnMy0xMTUiIHk9IjY2LjM1MTIiLz4mI3hhOzx1c2UgeD0iOTAuNTExIiB4bGluazpocmVmPSIjZzMtMTE1IiB5PSI2Ni4zNTEyIi8+JiN4YTs8dXNlIHg9Ijk2LjAwNDQiIHhsaW5rOmhyZWY9IiNnMi0xMDgiIHk9IjY4LjE0NDUiLz4mI3hhOzx1c2UgeD0iOTguNjE3MSIgeGxpbms6aHJlZj0iI2cyLTExMSIgeT0iNjguMTQ0NSIvPiYjeGE7PHVzZSB4PSIxMDIuNjk1IiB4bGluazpocmVmPSIjZzItMTE1IiB5PSI2OC4xNDQ1Ii8+JiN4YTs8dXNlIHg9IjEwNi41OTYiIHhsaW5rOmhyZWY9IiNnMi0xMTUiIHk9IjY4LjE0NDUiLz4mI3hhOzx1c2UgeD0iMTEzLjA0MiIgeGxpbms6aHJlZj0iI2c0LTQwIiB5PSI2Ni4zNTEyIi8+JiN4YTs8dXNlIHg9IjExNy41OTQiIHhsaW5rOmhyZWY9IiNnMy04OSIgeT0iNjYuMzUxMiIvPiYjeGE7PHVzZSB4PSIxMjQuMzYxIiB4bGluazpocmVmPSIjZzItMTA1IiB5PSI2OC4xNDQ1Ii8+JiN4YTs8dXNlIHg9IjEyNy43NDIiIHhsaW5rOmhyZWY9IiNnMy01OSIgeT0iNjYuMzUxMiIvPiYjeGE7PHVzZSB4PSIxMzIuOTc0IiB4bGluazpocmVmPSIjZzMtMTE2IiB5PSI2Ni4zNTEyIi8+JiN4YTs8dXNlIHg9IjEzNy4xODUiIHhsaW5rOmhyZWY9IiNnMi0xMDUiIHk9IjY4LjE0NDUiLz4mI3hhOzx1c2UgeD0iMTQwLjU2NyIgeGxpbms6aHJlZj0iI2cxLTEwNiIgeT0iNjYuMzUxMiIvPiYjeGE7PHVzZSB4PSIxNDMuODc1IiB4bGluazpocmVmPSIjZzMtMTE5IiB5PSI2Ni4zNTEyIi8+JiN4YTs8dXNlIHg9IjE1Mi41MzMiIHhsaW5rOmhyZWY9IiNnNC00MSIgeT0iNjYuMzUxMiIvPiYjeGE7PC9nPiYjeGE7PC9zdmc+;" vertex="1" parent="1">
          <mxGeometry x="430" y="170" width="114" height="30" as="geometry" />
        </mxCell>
        <mxCell id="vNxMpRLr9Yadr-kEDDQe-3" value="" style="shape=image;imageAspect=0;aspect=fixed;verticalLabelPosition=bottom;verticalAlign=top;fillColor=#000099;image=data:image/svg+xml,PHN2ZyB4bWxucz0iaHR0cDovL3d3dy53My5vcmcvMjAwMC9zdmciIHhtbG5zOnhsaW5rPSJodHRwOi8vd3d3LnczLm9yZy8xOTk5L3hsaW5rIiBoZWlnaHQ9IjEzLjg2NTJwdCIgdmVyc2lvbj0iMS4xIiB2aWV3Qm94PSItMC4yMzkwNTEgLTAuMjQwNzc3IDEzMy45OSAxMy44NjUyIiB3aWR0aD0iMTMzLjk5cHQiPiYjeGE7PGRlZnM+JiN4YTs8cGF0aCBkPSJNMS45MDA4NyAtOC41MzU5OUMxLjkwMDg3IC04Ljc1MTE4IDEuOTAwODcgLTguOTY2MzggMS42NjE3NyAtOC45NjYzOFMxLjQyMjY3IC04Ljc1MTE4IDEuNDIyNjcgLTguNTM1OTlWMi41NTg0MUMxLjQyMjY3IDIuNzczNiAxLjQyMjY3IDIuOTg4NzkgMS42NjE3NyAyLjk4ODc5UzEuOTAwODcgMi43NzM2IDEuOTAwODcgMi41NTg0MVYtOC41MzU5OVoiIGlkPSJnMC0xMDYiLz4mI3hhOzxwYXRoIGQ9Ik0yLjMzMTI2IDAuMDQ3ODIwN0MyLjMzMTI2IC0wLjY0NTU3OSAyLjEwNDExIC0xLjE1OTY1IDEuNjEzOTUgLTEuMTU5NjVDMS4yMzEzOCAtMS4xNTk2NSAxLjA0MDEgLTAuODQ4ODE3IDEuMDQwMSAtMC41ODU4MDNTMS4yMTk0MyAwIDEuNjI1OSAwQzEuNzgxMzIgMCAxLjkxMjgzIC0wLjA0NzgyMDcgMi4wMjA0MiAtMC4xNTU0MTdDMi4wNDQzMyAtMC4xNzkzMjggMi4wNTYyOSAtMC4xNzkzMjggMi4wNjgyNCAtMC4xNzkzMjhDMi4wOTIxNSAtMC4xNzkzMjggMi4wOTIxNSAtMC4wMTE5NTUyIDIuMDkyMTUgMC4wNDc4MjA3QzIuMDkyMTUgMC40NDIzNDEgMi4wMjA0MiAxLjIxOTQzIDEuMzI3MDIgMS45OTY1MUMxLjE5NTUyIDIuMTM5OTggMS4xOTU1MiAyLjE2Mzg5IDEuMTk1NTIgMi4xODc4QzEuMTk1NTIgMi4yNDc1NyAxLjI1NTI5IDIuMzA3MzUgMS4zMTUwNyAyLjMwNzM1QzEuNDEwNzEgMi4zMDczNSAyLjMzMTI2IDEuNDIyNjcgMi4zMzEyNiAwLjA0NzgyMDdaIiBpZD0iZzItNTkiLz4mI3hhOzxwYXRoIGQ9Ik04Ljk0MjQ3IC03LjI5MjY1QzkuMDUwMDYgLTcuNjk5MTMgOS4wNzM5NyAtNy44MTg2OCA5LjkyMjc5IC03LjgxODY4QzEwLjEzOCAtNy44MTg2OCAxMC4yNTc1IC03LjgxODY4IDEwLjI1NzUgLTguMDMzODdDMTAuMjU3NSAtOC4xNjUzOCAxMC4xNDk5IC04LjE2NTM4IDEwLjA3ODIgLTguMTY1MzhDOS44NjMwMSAtOC4xNjUzOCA5LjYxMTk2IC04LjE0MTQ3IDkuMzg0ODEgLTguMTQxNDdINy45NzQxQzcuNzQ2OTUgLTguMTQxNDcgNy40OTU4OSAtOC4xNjUzOCA3LjI2ODc0IC04LjE2NTM4QzcuMTg1MDYgLTguMTY1MzggNy4wNDE1OSAtOC4xNjUzOCA3LjA0MTU5IC03LjkzODIzQzcuMDQxNTkgLTcuODE4NjggNy4xMjUyOCAtNy44MTg2OCA3LjM1MjQzIC03LjgxODY4QzguMDY5NzQgLTcuODE4NjggOC4wNjk3NCAtNy43MjMwNCA4LjA2OTc0IC03LjU5MTUzQzguMDY5NzQgLTcuNTY3NjIgOC4wNjk3NCAtNy40OTU4OSA4LjAyMTkyIC03LjMxNjU2TDcuMjkyNjUgLTQuNDIzNDFIMy42ODIxOUw0LjM5OTUgLTcuMjkyNjVDNC41MDcxIC03LjY5OTEzIDQuNTMxMDEgLTcuODE4NjggNS4zNzk4MyAtNy44MTg2OEM1LjU5NTAyIC03LjgxODY4IDUuNzE0NTcgLTcuODE4NjggNS43MTQ1NyAtOC4wMzM4N0M1LjcxNDU3IC04LjE2NTM4IDUuNjA2OTcgLTguMTY1MzggNS41MzUyNCAtOC4xNjUzOEM1LjMyMDA1IC04LjE2NTM4IDUuMDY4OTkgLTguMTQxNDcgNC44NDE4NCAtOC4xNDE0N0gzLjQzMTEzQzMuMjAzOTkgLTguMTQxNDcgMi45NTI5MyAtOC4xNjUzOCAyLjcyNTc4IC04LjE2NTM4QzIuNjQyMDkgLTguMTY1MzggMi40OTg2MyAtOC4xNjUzOCAyLjQ5ODYzIC03LjkzODIzQzIuNDk4NjMgLTcuODE4NjggMi41ODIzMiAtNy44MTg2OCAyLjgwOTQ2IC03LjgxODY4QzMuNTI2NzcgLTcuODE4NjggMy41MjY3NyAtNy43MjMwNCAzLjUyNjc3IC03LjU5MTUzQzMuNTI2NzcgLTcuNTY3NjIgMy41MjY3NyAtNy40OTU4OSAzLjQ3ODk1IC03LjMxNjU2TDEuODY1MDEgLTAuODg0NjgyQzEuNzU3NDEgLTAuNDY2MjUyIDEuNzMzNSAtMC4zNDY3IDAuOTA4NTkzIC0wLjM0NjdDMC42MzM2MjQgLTAuMzQ2NyAwLjU0OTkzOCAtMC4zNDY3IDAuNTQ5OTM4IC0wLjExOTU1MkMwLjU0OTkzOCAwIDAuNjgxNDQ1IDAgMC43MTczMSAwQzAuOTMyNTAzIDAgMS4xODM1NiAtMC4wMjM5MTAzIDEuNDEwNzEgLTAuMDIzOTEwM0gyLjgyMTQyQzMuMDQ4NTcgLTAuMDIzOTEwMyAzLjI5OTYzIDAgMy41MjY3NyAwQzMuNjIyNDIgMCAzLjc1MzkyIDAgMy43NTM5MiAtMC4yMjcxNDhDMy43NTM5MiAtMC4zNDY3IDMuNjQ2MzMgLTAuMzQ2NyAzLjQ2NyAtMC4zNDY3QzIuNzM3NzMgLTAuMzQ2NyAyLjczNzczIC0wLjQ0MjM0MSAyLjczNzczIC0wLjU2MTg5M0MyLjczNzczIC0wLjU3Mzg0OCAyLjczNzczIC0wLjY1NzUzNCAyLjc2MTY0IC0wLjc1MzE3NkwzLjU4NjU1IC00LjA3NjcxSDcuMjA4OTdDNy4wMDU3MyAtMy4yODc2NyA2LjM5NjAxIC0wLjc4OTA0MSA2LjM3MjEgLTAuNzE3MzFDNi4yNDA2IC0wLjM1ODY1NSA2LjA0OTMyIC0wLjM1ODY1NSA1LjM0Mzk2IC0wLjM0NjdDNS4yMDA1IC0wLjM0NjcgNS4wOTI5IC0wLjM0NjcgNS4wOTI5IC0wLjExOTU1MkM1LjA5MjkgMCA1LjIyNDQxIDAgNS4yNjAyNyAwQzUuNDc1NDcgMCA1LjcyNjUzIC0wLjAyMzkxMDMgNS45NTM2NyAtMC4wMjM5MTAzSDcuMzY0MzhDNy41OTE1MyAtMC4wMjM5MTAzIDcuODQyNTkgMCA4LjA2OTc0IDBDOC4xNjUzOCAwIDguMjk2ODkgMCA4LjI5Njg5IC0wLjIyNzE0OEM4LjI5Njg5IC0wLjM0NjcgOC4xODkyOSAtMC4zNDY3IDguMDA5OTYgLTAuMzQ2N0M3LjI4MDcgLTAuMzQ2NyA3LjI4MDcgLTAuNDQyMzQxIDcuMjgwNyAtMC41NjE4OTNDNy4yODA3IC0wLjU3Mzg0OCA3LjI4MDcgLTAuNjU3NTM0IDcuMzA0NjEgLTAuNzUzMTc2TDguOTQyNDcgLTcuMjkyNjVaIiBpZD0iZzItNzIiLz4mI3hhOzxwYXRoIGQ9Ik01LjY3ODcgLTQuODUzOEw0LjU1NDkyIC03LjQ3MTk4QzQuNzEwMzQgLTcuNzU4OSA1LjA2ODk5IC03LjgwNjcyIDUuMjEyNDUgLTcuODE4NjhDNS4yODQxOCAtNy44MTg2OCA1LjQxNTY5IC03LjgzMDY0IDUuNDE1NjkgLTguMDMzODdDNS40MTU2OSAtOC4xNjUzOCA1LjMwODA5IC04LjE2NTM4IDUuMjM2MzYgLTguMTY1MzhDNS4wMzMxMyAtOC4xNjUzOCA0Ljc5NDAyIC04LjE0MTQ3IDQuNTkwNzggLTguMTQxNDdIMy44OTczOEMzLjE2ODEyIC04LjE0MTQ3IDIuNjQyMDkgLTguMTY1MzggMi42MzAxNCAtOC4xNjUzOEMyLjUzNDUgLTguMTY1MzggMi40MTQ5NCAtOC4xNjUzOCAyLjQxNDk0IC03LjkzODIzQzIuNDE0OTQgLTcuODE4NjggMi41MjI1NCAtNy44MTg2OCAyLjY3Nzk2IC03LjgxODY4QzMuMzcxMzYgLTcuODE4NjggMy40MTkxOCAtNy42OTkxMyAzLjUzODczIC03LjQxMjJMNC45NjEzOSAtNC4wODg2N0wyLjM2NzEyIC0xLjMxNTA3QzEuOTM2NzQgLTAuODQ4ODE3IDEuNDIyNjcgLTAuMzk0NTIxIDAuNTM3OTgzIC0wLjM0NjdDMC4zOTQ1MjEgLTAuMzM0NzQ1IDAuMjk4ODc5IC0wLjMzNDc0NSAwLjI5ODg3OSAtMC4xMTk1NTJDMC4yOTg4NzkgLTAuMDgzNjg2MiAwLjMxMDgzNCAwIDAuNDQyMzQxIDBDMC42MDk3MTQgMCAwLjc4OTA0MSAtMC4wMjM5MTAzIDAuOTU2NDEzIC0wLjAyMzkxMDNIMS41MTgzMUMxLjkwMDg3IC0wLjAyMzkxMDMgMi4zMTkzIDAgMi42ODk5MSAwQzIuNzczNiAwIDIuOTE3MDYgMCAyLjkxNzA2IC0wLjIxNTE5M0MyLjkxNzA2IC0wLjMzNDc0NSAyLjgzMzM3IC0wLjM0NjcgMi43NjE2NCAtMC4zNDY3QzIuNTIyNTQgLTAuMzcwNjEgMi4zNjcxMiAtMC41MDIxMTcgMi4zNjcxMiAtMC42OTM0QzIuMzY3MTIgLTAuODk2NjM4IDIuNTEwNTkgLTEuMDQwMSAyLjg1NzI5IC0xLjM5ODc1TDMuOTIxMyAtMi41NTg0MUM0LjE4NDMxIC0yLjgzMzM3IDQuODE3OTMgLTMuNTI2NzcgNS4wODA5NSAtMy43ODk3OUw2LjMzNjI0IC0wLjg0ODgxN0M2LjM0ODE5IC0wLjgyNDkwNyA2LjM5NjAxIC0wLjcwNTM1NSA2LjM5NjAxIC0wLjY5MzRDNi4zOTYwMSAtMC41ODU4MDMgNi4xMzMgLTAuMzcwNjEgNS43NTA0NCAtMC4zNDY3QzUuNjc4NyAtMC4zNDY3IDUuNTQ3MiAtMC4zMzQ3NDUgNS41NDcyIC0wLjExOTU1MkM1LjU0NzIgMCA1LjY2Njc1IDAgNS43MjY1MyAwQzUuOTI5NzYgMCA2LjE2ODg3IC0wLjAyMzkxMDMgNi4zNzIxIC0wLjAyMzkxMDNINy42ODcxN0M3LjkwMjM3IC0wLjAyMzkxMDMgOC4xMjk1MSAwIDguMzMyNzUgMEM4LjQxNjQ0IDAgOC41NDc5NSAwIDguNTQ3OTUgLTAuMjI3MTQ4QzguNTQ3OTUgLTAuMzQ2NyA4LjQyODM5IC0wLjM0NjcgOC4zMjA4IC0wLjM0NjdDNy42MDM0OSAtMC4zNTg2NTUgNy41Nzk1OCAtMC40MTg0MzEgNy4zNzYzNCAtMC44NjA3NzJMNS43OTgyNiAtNC41NjY4N0w3LjMxNjU2IC02LjE5Mjc4QzcuNDM2MTEgLTYuMzEyMzMgNy43MTEwOCAtNi42MTEyMSA3LjgxODY4IC02LjczMDc2QzguMzMyNzUgLTcuMjY4NzQgOC44MTA5NiAtNy43NTg5IDkuNzc5MzMgLTcuODE4NjhDOS44OTg4OCAtNy44MzA2NCAxMC4wMTg0IC03LjgzMDY0IDEwLjAxODQgLTguMDMzODdDMTAuMDE4NCAtOC4xNjUzOCA5LjkxMDgzIC04LjE2NTM4IDkuODYzMDEgLTguMTY1MzhDOS42OTU2NCAtOC4xNjUzOCA5LjUxNjMxIC04LjE0MTQ3IDkuMzQ4OTQgLTguMTQxNDdIOC43OTlDOC40MTY0NCAtOC4xNDE0NyA3Ljk5ODAxIC04LjE2NTM4IDcuNjI3NCAtOC4xNjUzOEM3LjU0MzcxIC04LjE2NTM4IDcuNDAwMjUgLTguMTY1MzggNy40MDAyNSAtNy45NTAxOUM3LjQwMDI1IC03LjgzMDY0IDcuNDgzOTQgLTcuODE4NjggNy41NTU2NyAtNy44MTg2OEM3Ljc0Njk1IC03Ljc5NDc3IDcuOTUwMTkgLTcuNjk5MTMgNy45NTAxOSAtNy40NzE5OEw3LjkzODIzIC03LjQ0ODA3QzcuOTI2MjggLTcuMzY0MzggNy45MDIzNyAtNy4yNDQ4MyA3Ljc3MDg2IC03LjEwMTM3TDUuNjc4NyAtNC44NTM4WiIgaWQ9ImcyLTg4Ii8+JiN4YTs8cGF0aCBkPSJNMy4wMzY2MSAtNy45OTgwMUMzLjA0ODU3IC04LjA0NTgzIDMuMDcyNDggLTguMTE3NTYgMy4wNzI0OCAtOC4xNzczM0MzLjA3MjQ4IC04LjI5Njg5IDIuOTUyOTMgLTguMjk2ODkgMi45MjkwMiAtOC4yOTY4OUMyLjkxNzA2IC04LjI5Njg5IDIuNDg2NjcgLTguMjYxMDIgMi4yNzE0OCAtOC4yMzcxMUMyLjA2ODI0IC04LjIyNTE2IDEuODg4OTIgLTguMjAxMjUgMS42NzM3MiAtOC4xODkyOUMxLjM4NjggLTguMTY1MzggMS4zMDMxMSAtOC4xNTM0MiAxLjMwMzExIC03LjkzODIzQzEuMzAzMTEgLTcuODE4NjggMS40MjI2NyAtNy44MTg2OCAxLjU0MjIyIC03LjgxODY4QzIuMTUxOTMgLTcuODE4NjggMi4xNTE5MyAtNy43MTEwOCAyLjE1MTkzIC03LjU5MTUzQzIuMTUxOTMgLTcuNTQzNzEgMi4xNTE5MyAtNy41MTk4IDIuMDkyMTUgLTcuMzA0NjFMMC42MDk3MTQgLTEuMzc0ODRDMC41NzM4NDggLTEuMjQzMzQgMC41NDk5MzggLTEuMTQ3NyAwLjU0OTkzOCAtMC45NTY0MTNDMC41NDk5MzggLTAuMzU4NjU1IDAuOTkyMjc5IDAuMTE5NTUyIDEuNjAxOTkgMC4xMTk1NTJDMS45OTY1MSAwLjExOTU1MiAyLjI1OTUzIC0wLjE0MzQ2MiAyLjQ1MDgxIC0wLjUxNDA3MkMyLjY1NDA1IC0wLjkwODU5MyAyLjgyMTQyIC0xLjY2MTc3IDIuODIxNDIgLTEuNzA5NTlDMi44MjE0MiAtMS43NjkzNiAyLjc3MzYgLTEuODE3MTkgMi43MDE4NyAtMS44MTcxOUMyLjU5NDI3IC0xLjgxNzE5IDIuNTgyMzIgLTEuNzU3NDEgMi41MzQ1IC0xLjU3ODA4QzIuMzE5MyAtMC43NTMxNzYgMi4xMDQxMSAtMC4xMTk1NTIgMS42MjU5IC0wLjExOTU1MkMxLjI2NzI1IC0wLjExOTU1MiAxLjI2NzI1IC0wLjUwMjExNyAxLjI2NzI1IC0wLjY2OTQ4OUMxLjI2NzI1IC0wLjcxNzMxIDEuMjY3MjUgLTAuOTY4MzY5IDEuMzUwOTMgLTEuMzAzMTFMMy4wMzY2MSAtNy45OTgwMVoiIGlkPSJnMi0xMDgiLz4mI3hhOzxwYXRoIGQ9Ik01LjQ1MTU2IC0zLjI4NzY3QzUuNDUxNTYgLTQuNDIzNDEgNC43MTAzNCAtNS4yNzIyMyAzLjYyMjQyIC01LjI3MjIzQzIuMDQ0MzMgLTUuMjcyMjMgMC40OTAxNjIgLTMuNTUwNjggMC40OTAxNjIgLTEuODY1MDFDMC40OTAxNjIgLTAuNzI5MjY1IDEuMjMxMzggMC4xMTk1NTIgMi4zMTkzIDAuMTE5NTUyQzMuOTA5MzQgMC4xMTk1NTIgNS40NTE1NiAtMS42MDE5OSA1LjQ1MTU2IC0zLjI4NzY3Wk0yLjMzMTI2IC0wLjExOTU1MkMxLjczMzUgLTAuMTE5NTUyIDEuMjkxMTYgLTAuNTk3NzU4IDEuMjkxMTYgLTEuNDM0NjJDMS4yOTExNiAtMS45ODQ1NiAxLjU3ODA4IC0zLjIwMzk5IDEuOTEyODMgLTMuODAxNzRDMi40NTA4MSAtNC43MjIyOSAzLjEyMDMgLTUuMDMzMTMgMy42MTA0NiAtNS4wMzMxM0M0LjE5NjI2IC01LjAzMzEzIDQuNjUwNTYgLTQuNTU0OTIgNC42NTA1NiAtMy43MTgwNkM0LjY1MDU2IC0zLjIzOTg1IDQuMzk5NSAtMS45NjA2NSAzLjk0NTIxIC0xLjIzMTM4QzMuNDU1MDQgLTAuNDMwMzg2IDIuNzk3NTEgLTAuMTE5NTUyIDIuMzMxMjYgLTAuMTE5NTUyWiIgaWQ9ImcyLTExMSIvPiYjeGE7PHBhdGggZD0iTTIuNzI1NzggLTIuMzkxMDNDMi45MjkwMiAtMi4zNTUxNyAzLjI1MTgxIC0yLjI4MzQ0IDMuMzIzNTQgLTIuMjcxNDhDMy40Nzg5NSAtMi4yMjM2NiA0LjAxNjk0IC0yLjAzMjM4IDQuMDE2OTQgLTEuNDU4NTNDNC4wMTY5NCAtMS4wODc5MiAzLjY4MjE5IC0wLjExOTU1MiAyLjI5NTM5IC0wLjExOTU1MkMyLjA0NDMzIC0wLjExOTU1MiAxLjE0NzcgLTAuMTU1NDE3IDAuOTA4NTkzIC0wLjgxMjk1MUMxLjM4NjggLTAuNzUzMTc2IDEuNjI1OSAtMS4xMjM3OSAxLjYyNTkgLTEuMzg2OEMxLjYyNTkgLTEuNjM3ODYgMS40NTg1MyAtMS43NjkzNiAxLjIxOTQzIC0xLjc2OTM2QzAuOTU2NDEzIC0xLjc2OTM2IDAuNjA5NzE0IC0xLjU2NjEzIDAuNjA5NzE0IC0xLjAyODE0QzAuNjA5NzE0IC0wLjMyMjc5IDEuMzI3MDIgMC4xMTk1NTIgMi4yODM0NCAwLjExOTU1MkM0LjEwMDYyIDAuMTE5NTUyIDQuNjM4NjEgLTEuMjE5NDMgNC42Mzg2MSAtMS44NDExQzQuNjM4NjEgLTIuMDIwNDIgNC42Mzg2MSAtMi4zNTUxNyA0LjI1NjA0IC0yLjczNzczQzMuOTU3MTYgLTMuMDI0NjYgMy42NzAyNCAtMy4wODQ0MyAzLjAyNDY2IC0zLjIxNTk0QzIuNzAxODcgLTMuMjg3NjcgMi4xODc4IC0zLjM5NTI3IDIuMTg3OCAtMy45MzMyNUMyLjE4NzggLTQuMTcyMzUgMi40MDI5OSAtNS4wMzMxMyAzLjUzODczIC01LjAzMzEzQzQuMDQwODUgLTUuMDMzMTMgNC41MzEwMSAtNC44NDE4NCA0LjY1MDU2IC00LjQxMTQ2QzQuMTI0NTMgLTQuNDExNDYgNC4xMDA2MiAtMy45NTcxNiA0LjEwMDYyIC0zLjk0NTIxQzQuMTAwNjIgLTMuNjk0MTUgNC4zMjc3NyAtMy42MjI0MiA0LjQzNTM3IC0zLjYyMjQyQzQuNjAyNzQgLTMuNjIyNDIgNC45Mzc0OCAtMy43NTM5MiA0LjkzNzQ4IC00LjI1NjA0UzQuNDgzMTkgLTUuMjcyMjMgMy41NTA2OCAtNS4yNzIyM0MxLjk4NDU2IC01LjI3MjIzIDEuNTY2MTMgLTQuMDQwODUgMS41NjYxMyAtMy41NTA2OEMxLjU2NjEzIC0yLjY0MjA5IDIuNDUwODEgLTIuNDUwODEgMi43MjU3OCAtMi4zOTEwM1oiIGlkPSJnMi0xMTUiLz4mI3hhOzxwYXRoIGQ9Ik00LjExMjU4IC0wLjcyOTI2NUM0LjM3NTU5IC0wLjAxMTk1NTIgNS4xMTY4MSAwLjExOTU1MiA1LjU3MTExIDAuMTE5NTUyQzYuNDc5NyAwLjExOTU1MiA3LjAxNzY4IC0wLjY2OTQ4OSA3LjM1MjQzIC0xLjQ5NDRDNy42Mjc0IC0yLjE4NzggOC4wNjk3NCAtMy43NjU4OCA4LjA2OTc0IC00LjQ3MTIzQzguMDY5NzQgLTUuMjAwNSA3LjY5OTEzIC01LjI3MjIzIDcuNTkxNTMgLTUuMjcyMjNDNy4zMDQ2MSAtNS4yNzIyMyA3LjA0MTU5IC00Ljk4NTMxIDcuMDQxNTkgLTQuNzQ2MkM3LjA0MTU5IC00LjYwMjc0IDcuMTI1MjggLTQuNTE5MDUgNy4xODUwNiAtNC40NzEyM0M3LjI5MjY1IC00LjM2MzY0IDcuNjAzNDkgLTQuMDQwODUgNy42MDM0OSAtMy40MTkxOEM3LjYwMzQ5IC0zLjAxMjcgNy4yNjg3NCAtMS44ODg5MiA3LjAxNzY4IC0xLjMyNzAyQzYuNjgyOTQgLTAuNTk3NzU4IDYuMjQwNiAtMC4xMTk1NTIgNS42MTg5MyAtMC4xMTk1NTJDNC45NDk0NCAtMC4xMTk1NTIgNC43MzQyNSAtMC42MjE2NjkgNC43MzQyNSAtMS4xNzE2MUM0LjczNDI1IC0xLjUxODMxIDQuODQxODQgLTEuOTM2NzQgNC44ODk2NiAtMi4xMzk5OEw1LjM5MTc4IC00LjE0ODQ0QzUuNDUxNTYgLTQuMzg3NTUgNS41NTkxNSAtNC44MDU5OCA1LjU1OTE1IC00Ljg1MzhDNS41NTkxNSAtNS4wMzMxMyA1LjQxNTY5IC01LjE1MjY4IDUuMjM2MzYgLTUuMTUyNjhDNC44ODk2NiAtNS4xNTI2OCA0LjgwNTk4IC00Ljg1MzggNC43MzQyNSAtNC41NjY4N0M0LjYxNDY5IC00LjEwMDYyIDQuMTEyNTggLTIuMDgwMiA0LjA2NDc2IC0xLjgxNzE5QzQuMDE2OTQgLTEuNjEzOTUgNC4wMTY5NCAtMS40ODI0NCA0LjAxNjk0IC0xLjIxOTQzQzQuMDE2OTQgLTAuOTMyNTAzIDMuNjM0MzcgLTAuNDc4MjA3IDMuNjIyNDIgLTAuNDU0Mjk2QzMuNDkwOTEgLTAuMzIyNzkgMy4yOTk2MyAtMC4xMTk1NTIgMi45MjkwMiAtMC4xMTk1NTJDMS45ODQ1NiAtMC4xMTk1NTIgMS45ODQ1NiAtMS4wMTYxOSAxLjk4NDU2IC0xLjIxOTQzQzEuOTg0NTYgLTEuNjAxOTkgMi4wNjgyNCAtMi4xMjgwMiAyLjYwNjIzIC0zLjU1MDY4QzIuNzQ5NjkgLTMuOTIxMyAyLjgwOTQ2IC00LjA3NjcxIDIuODA5NDYgLTQuMzE1ODJDMi44MDk0NiAtNC44MTc5MyAyLjQ1MDgxIC01LjI3MjIzIDEuODY1MDEgLTUuMjcyMjNDMC43NjUxMzEgLTUuMjcyMjMgMC4zMjI3OSAtMy41Mzg3MyAwLjMyMjc5IC0zLjQ0MzA5QzAuMzIyNzkgLTMuMzk1MjcgMC4zNzA2MSAtMy4zMzU0OSAwLjQ1NDI5NiAtMy4zMzU0OUMwLjU2MTg5MyAtMy4zMzU0OSAwLjU3Mzg0OCAtMy4zODMzMSAwLjYyMTY2OSAtMy41NTA2OEMwLjkyMDU0OCAtNC42MDI3NCAxLjM4NjggLTUuMDMzMTMgMS44MjkxNCAtNS4wMzMxM0MxLjk0ODY5IC01LjAzMzEzIDIuMTM5OTggLTUuMDIxMTcgMi4xMzk5OCAtNC42Mzg2MUMyLjEzOTk4IC00LjU3ODgzIDIuMTM5OTggLTQuMzI3NzcgMS45MzY3NCAtMy44MDE3NEMxLjM3NDg0IC0yLjMwNzM1IDEuMjU1MjkgLTEuODE3MTkgMS4yNTUyOSAtMS4zNjI4OUMxLjI1NTI5IC0wLjEwNzU5NyAyLjI4MzQ0IDAuMTE5NTUyIDIuODkzMTUgMC4xMTk1NTJDMy4wOTYzOSAwLjExOTU1MiAzLjYzNDM3IDAuMTE5NTUyIDQuMTEyNTggLTAuNzI5MjY1WiIgaWQ9ImcyLTExOSIvPiYjeGE7PHBhdGggZD0iTTMuODg1NDMgMi45MDUxMUMzLjg4NTQzIDIuODY5MjQgMy44ODU0MyAyLjg0NTMzIDMuNjgyMTkgMi42NDIwOUMyLjQ4NjY3IDEuNDM0NjIgMS44MTcxOSAtMC41Mzc5ODMgMS44MTcxOSAtMi45NzY4NEMxLjgxNzE5IC01LjI5NjE0IDIuMzc5MDggLTcuMjkyNjUgMy43NjU4OCAtOC43MDMzNkMzLjg4NTQzIC04LjgxMDk2IDMuODg1NDMgLTguODM0ODcgMy44ODU0MyAtOC44NzA3M0MzLjg4NTQzIC04Ljk0MjQ3IDMuODI1NjUgLTguOTY2MzggMy43Nzc4MyAtOC45NjYzOEMzLjYyMjQyIC04Ljk2NjM4IDIuNjQyMDkgLTguMTA1NiAyLjA1NjI5IC02LjkzNEMxLjQ0NjU4IC01LjcyNjUzIDEuMTcxNjEgLTQuNDQ3MzIgMS4xNzE2MSAtMi45NzY4NEMxLjE3MTYxIC0xLjkxMjgzIDEuMzM4OTggLTAuNDkwMTYyIDEuOTYwNjUgMC43ODkwNDFDMi42NjYgMi4yMjM2NiAzLjY0NjMzIDMuMDAwNzUgMy43Nzc4MyAzLjAwMDc1QzMuODI1NjUgMy4wMDA3NSAzLjg4NTQzIDIuOTc2ODQgMy44ODU0MyAyLjkwNTExWiIgaWQ9ImczLTQwIi8+JiN4YTs8cGF0aCBkPSJNMy4zNzEzNiAtMi45NzY4NEMzLjM3MTM2IC0zLjg4NTQzIDMuMjUxODEgLTUuMzY3ODcgMi41ODIzMiAtNi43NTQ2N0MxLjg3Njk2IC04LjE4OTI5IDAuODk2NjM4IC04Ljk2NjM4IDAuNzY1MTMxIC04Ljk2NjM4QzAuNzE3MzEgLTguOTY2MzggMC42NTc1MzQgLTguOTQyNDcgMC42NTc1MzQgLTguODcwNzNDMC42NTc1MzQgLTguODM0ODcgMC42NTc1MzQgLTguODEwOTYgMC44NjA3NzIgLTguNjA3NzJDMi4wNTYyOSAtNy40MDAyNSAyLjcyNTc4IC01LjQyNzY1IDIuNzI1NzggLTIuOTg4NzlDMi43MjU3OCAtMC42Njk0ODkgMi4xNjM4OSAxLjMyNzAyIDAuNzc3MDg2IDIuNzM3NzNDMC42NTc1MzQgMi44NDUzMyAwLjY1NzUzNCAyLjg2OTI0IDAuNjU3NTM0IDIuOTA1MTFDMC42NTc1MzQgMi45NzY4NCAwLjcxNzMxIDMuMDAwNzUgMC43NjUxMzEgMy4wMDA3NUMwLjkyMDU0OCAzLjAwMDc1IDEuOTAwODcgMi4xMzk5OCAyLjQ4NjY3IDAuOTY4MzY5QzMuMDk2MzkgLTAuMjUxMDU5IDMuMzcxMzYgLTEuNTQyMjIgMy4zNzEzNiAtMi45NzY4NFoiIGlkPSJnMy00MSIvPiYjeGE7PHBhdGggZD0iTTMuMTI0MjggLTMuMDM2NjFDMy4wNTI1NSAtMy4xNzIxIDIuODIxNDIgLTMuNTE0ODIgMi4zMzUyNCAtMy41MTQ4MkMxLjM4NjggLTMuNTE0ODIgMC4zNDI3MTUgLTIuNDA2OTcgMC4zNDI3MTUgLTEuMjI3NEMwLjM0MjcxNSAtMC4zOTg1MDYgMC44NzY3MTIgMC4wNzk3MDExIDEuNDkwNDEgMC4wNzk3MDExQzIuMDAwNSAwLjA3OTcwMTEgMi40Mzg4NSAtMC4zMjY3NzUgMi41ODIzMiAtMC40ODYxNzdDMi43MjU3OCAwLjA2Mzc2MDkgMy4yNjc3NSAwLjA3OTcwMTEgMy4zNjMzOSAwLjA3OTcwMTFDMy43MzAwMSAwLjA3OTcwMTEgMy45MTMzMyAtMC4yMjMxNjMgMy45NzcwOSAtMC4zNTg2NTVDNC4xMzY0OSAtMC42NDU1NzkgNC4yNDgwNyAtMS4xMDc4NSA0LjI0ODA3IC0xLjEzOTczQzQuMjQ4MDcgLTEuMTg3NTUgNC4yMTYxOSAtMS4yNDMzNCA0LjEyMDU1IC0xLjI0MzM0UzQuMDA4OTcgLTEuMTk1NTIgMy45NjExNSAtMC45OTYyNjRDMy44NDk1NiAtMC41NTc5MDggMy42OTgxMyAtMC4xNDM0NjIgMy4zODczIC0wLjE0MzQ2MkMzLjIwMzk5IC0wLjE0MzQ2MiAzLjEzMjI1IC0wLjI5NDg5NCAzLjEzMjI1IC0wLjUxODA1N0MzLjEzMjI1IC0wLjY1MzU0OSAzLjIwMzk5IC0wLjkyNDUzMyAzLjI1MTgxIC0xLjEyMzc5UzMuNDE5MTggLTEuODAxMjUgMy40NTEwNiAtMS45NDQ3MUwzLjYxMDQ2IC0yLjU1MDQ0QzMuNjUwMzEgLTIuNzQxNzIgMy43Mzc5OCAtMy4wNzY0NiAzLjczNzk4IC0zLjExNjMxQzMuNzM3OTggLTMuMjk5NjMgMy41ODY1NSAtMy4zNjMzOSAzLjQ4Mjk0IC0zLjM2MzM5QzMuMzYzMzkgLTMuMzYzMzkgMy4xNjQxMyAtMy4yODM2OSAzLjEyNDI4IC0zLjAzNjYxWk0yLjU4MjMyIC0wLjg2MDc3MkMyLjE4MzgxIC0wLjMxMDgzNCAxLjc2OTM2IC0wLjE0MzQ2MiAxLjUxNDMyIC0wLjE0MzQ2MkMxLjE0NzcgLTAuMTQzNDYyIDAuOTY0Mzg0IC0wLjQ3ODIwNyAwLjk2NDM4NCAtMC44OTI2NTNDMC45NjQzODQgLTEuMjY3MjUgMS4xNzk1OCAtMi4xMjAwNSAxLjM1NDkyIC0yLjQ3MDczQzEuNTg2MDUgLTIuOTU2OTEgMS45NzY1OSAtMy4yOTE2NiAyLjM0MzIxIC0zLjI5MTY2QzIuODYxMjcgLTMuMjkxNjYgMy4wMTI3IC0yLjcwOTg0IDMuMDEyNyAtMi42MTQyQzMuMDEyNyAtMi41ODIzMiAyLjgxMzQ1IC0xLjgwMTI1IDIuNzY1NjMgLTEuNTk0MDJDMi42NjIwMiAtMS4yMTk0MyAyLjY2MjAyIC0xLjIwMzQ5IDIuNTgyMzIgLTAuODYwNzcyWiIgaWQ9ImcxLTk3Ii8+JiN4YTs8cGF0aCBkPSJNMy4yNTk3OCAtMy4wNTI1NUMyLjkzMyAtMy4wMTI3IDIuODI5MzkgLTIuNzY1NjMgMi44MjkzOSAtMi42MDYyM0MyLjgyOTM5IC0yLjM3NTA5IDMuMDM2NjEgLTIuMzExMzMgMy4xNDAyMiAtMi4zMTEzM0MzLjE4MDA3IC0yLjMxMTMzIDMuNTg2NTUgLTIuMzQzMjEgMy41ODY1NSAtMi44MjkzOVMzLjA2MDUyIC0zLjUxNDgyIDIuNTgyMzIgLTMuNTE0ODJDMS40NTA1NiAtMy41MTQ4MiAwLjM1MDY4NSAtMi40MTQ5NCAwLjM1MDY4NSAtMS4yOTkxM0MwLjM1MDY4NSAtMC41NDE5NjggMC44Njg3NDIgMC4wNzk3MDExIDEuNzUzNDIgMC4wNzk3MDExQzMuMDEyNyAwLjA3OTcwMTEgMy42NzQyMiAtMC43MjUyOCAzLjY3NDIyIC0wLjgyODg5MkMzLjY3NDIyIC0wLjkwMDYyMyAzLjU5NDUyIC0wLjk1NjQxMyAzLjU0NjcgLTAuOTU2NDEzUzMuNDc0OTcgLTAuOTMyNTAzIDMuNDM1MTIgLTAuODg0NjgyQzIuODA1NDggLTAuMTQzNDYyIDEuOTEyODMgLTAuMTQzNDYyIDEuNzY5MzYgLTAuMTQzNDYyQzEuMzM4OTggLTAuMTQzNDYyIDAuOTk2MjY0IC0wLjQwNjQ3NiAwLjk5NjI2NCAtMS4wMTIyQzAuOTk2MjY0IC0xLjM2Mjg5IDEuMTU1NjcgLTIuMjA3NzIgMS41MzAyNiAtMi43MDE4N0MxLjg4MDk1IC0zLjE0ODE5IDIuMjc5NDUgLTMuMjkxNjYgMi41OTAyOSAtMy4yOTE2NkMyLjY4NTkzIC0zLjI5MTY2IDMuMDUyNTUgLTMuMjgzNjkgMy4yNTk3OCAtMy4wNTI1NVoiIGlkPSJnMS05OSIvPiYjeGE7PHBhdGggZD0iTTQuMjg3OTIgLTUuMjkyMTVDNC4yOTU4OSAtNS4zMDgwOSA0LjMxOTggLTUuNDExNzEgNC4zMTk4IC01LjQxOTY4QzQuMzE5OCAtNS40NTk1MyA0LjI4NzkyIC01LjUzMTI2IDQuMTkyMjggLTUuNTMxMjZDNC4xNjA0IC01LjUzMTI2IDMuOTEzMzMgLTUuNTA3MzUgMy43MzAwMSAtNS40OTE0MUwzLjI4MzY5IC01LjQ1OTUzQzMuMTA4MzQgLTUuNDQzNTkgMy4wMjg2NCAtNS40MzU2MiAzLjAyODY0IC01LjI5MjE1QzMuMDI4NjQgLTUuMTgwNTcgMy4xNDAyMiAtNS4xODA1NyAzLjIzNTg3IC01LjE4MDU3QzMuNjE4NDMgLTUuMTgwNTcgMy42MTg0MyAtNS4xMzI3NSAzLjYxODQzIC01LjA2MTAyQzMuNjE4NDMgLTUuMDEzMiAzLjU1NDY3IC00Ljc1MDE5IDMuNTE0ODIgLTQuNTkwNzhMMy4xMjQyOCAtMy4wMzY2MUMzLjA1MjU1IC0zLjE3MjEgMi44MjE0MiAtMy41MTQ4MiAyLjMzNTI0IC0zLjUxNDgyQzEuMzg2OCAtMy41MTQ4MiAwLjM0MjcxNSAtMi40MDY5NyAwLjM0MjcxNSAtMS4yMjc0QzAuMzQyNzE1IC0wLjM5ODUwNiAwLjg3NjcxMiAwLjA3OTcwMTEgMS40OTA0MSAwLjA3OTcwMTFDMi4wMDA1IDAuMDc5NzAxMSAyLjQzODg1IC0wLjMyNjc3NSAyLjU4MjMyIC0wLjQ4NjE3N0MyLjcyNTc4IDAuMDYzNzYwOSAzLjI2Nzc1IDAuMDc5NzAxMSAzLjM2MzM5IDAuMDc5NzAxMUMzLjczMDAxIDAuMDc5NzAxMSAzLjkxMzMzIC0wLjIyMzE2MyAzLjk3NzA5IC0wLjM1ODY1NUM0LjEzNjQ5IC0wLjY0NTU3OSA0LjI0ODA3IC0xLjEwNzg1IDQuMjQ4MDcgLTEuMTM5NzNDNC4yNDgwNyAtMS4xODc1NSA0LjIxNjE5IC0xLjI0MzM0IDQuMTIwNTUgLTEuMjQzMzRTNC4wMDg5NyAtMS4xOTU1MiAzLjk2MTE1IC0wLjk5NjI2NEMzLjg0OTU2IC0wLjU1NzkwOCAzLjY5ODEzIC0wLjE0MzQ2MiAzLjM4NzMgLTAuMTQzNDYyQzMuMjAzOTkgLTAuMTQzNDYyIDMuMTMyMjUgLTAuMjk0ODk0IDMuMTMyMjUgLTAuNTE4MDU3QzMuMTMyMjUgLTAuNjY5NDg5IDMuMTU2MTYgLTAuNzU3MTYxIDMuMTgwMDcgLTAuODYwNzcyTDQuMjg3OTIgLTUuMjkyMTVaTTIuNTgyMzIgLTAuODYwNzcyQzIuMTgzODEgLTAuMzEwODM0IDEuNzY5MzYgLTAuMTQzNDYyIDEuNTE0MzIgLTAuMTQzNDYyQzEuMTQ3NyAtMC4xNDM0NjIgMC45NjQzODQgLTAuNDc4MjA3IDAuOTY0Mzg0IC0wLjg5MjY1M0MwLjk2NDM4NCAtMS4yNjcyNSAxLjE3OTU4IC0yLjEyMDA1IDEuMzU0OTIgLTIuNDcwNzNDMS41ODYwNSAtMi45NTY5MSAxLjk3NjU5IC0zLjI5MTY2IDIuMzQzMjEgLTMuMjkxNjZDMi44NjEyNyAtMy4yOTE2NiAzLjAxMjcgLTIuNzA5ODQgMy4wMTI3IC0yLjYxNDJDMy4wMTI3IC0yLjU4MjMyIDIuODEzNDUgLTEuODAxMjUgMi43NjU2MyAtMS41OTQwMkMyLjY2MjAyIC0xLjIxOTQzIDIuNjYyMDIgLTEuMjAzNDkgMi41ODIzMiAtMC44NjA3NzJaIiBpZD0iZzEtMTAwIi8+JiN4YTs8cGF0aCBkPSJNMS42MDE5OSAtMS44MTcxOUMxLjc3NzMzIC0xLjgxNzE5IDIuMzc1MDkgLTEuODI1MTYgMi43OTc1MSAtMS45NzY1OUMzLjQ5MDkxIC0yLjIxNTY5IDMuNTE0ODIgLTIuNjkzOSAzLjUxNDgyIC0yLjgxMzQ1QzMuNTE0ODIgLTMuMjU5NzggMy4wOTI0IC0zLjUxNDgyIDIuNTc0MzUgLTMuNTE0ODJDMS42NzM3MiAtMy41MTQ4MiAwLjM5MDUzNSAtMi44MDU0OCAwLjM5MDUzNSAtMS4zOTQ3N0MwLjM5MDUzNSAtMC41ODE4MTggMC44ODQ2ODIgMC4wNzk3MDExIDEuNzYxMzkgMC4wNzk3MDExQzMuMDA0NzMgMC4wNzk3MDExIDMuNjc0MjIgLTAuNzE3MzEgMy42NzQyMiAtMC44Mjg4OTJDMy42NzQyMiAtMC45MDA2MjMgMy41OTQ1MiAtMC45NTY0MTMgMy41NDY3IC0wLjk1NjQxM1MzLjQ3NDk3IC0wLjkzMjUwMyAzLjQzNTEyIC0wLjg4NDY4MkMyLjgwNTQ4IC0wLjE0MzQ2MiAxLjkxMjgzIC0wLjE0MzQ2MiAxLjc3NzMzIC0wLjE0MzQ2MkMxLjE5NTUyIC0wLjE0MzQ2MiAxLjAyMDE3IC0wLjYzNzYwOSAxLjAyMDE3IC0xLjA4Mzk0QzEuMDIwMTcgLTEuMzIzMDQgMS4wOTE5MSAtMS42ODE2OSAxLjEyMzc5IC0xLjgxNzE5SDEuNjAxOTlaTTEuMTg3NTUgLTIuMDQwMzVDMS40NDI1OSAtMy4wMTI3IDIuMTY3ODcgLTMuMjkxNjYgMi41NzQzNSAtMy4yOTE2NkMyLjg5MzE1IC0zLjI5MTY2IDMuMTk2MDEgLTMuMTMyMjUgMy4xOTYwMSAtMi44MTM0NUMzLjE5NjAxIC0yLjA0MDM1IDEuODg4OTIgLTIuMDQwMzUgMS41NTQxNyAtMi4wNDAzNUgxLjE4NzU1WiIgaWQ9ImcxLTEwMSIvPiYjeGE7PHBhdGggZD0iTTMuOTUzMTggLTIuOTQwOTdDMy45ODUwNiAtMy4wNjA1MiAzLjk4NTA2IC0zLjEwODM0IDMuOTg1MDYgLTMuMTE2MzFDMy45ODUwNiAtMy4yOTk2MyAzLjgzMzYyIC0zLjM2MzM5IDMuNzMwMDEgLTMuMzYzMzlDMy41NDY3IC0zLjM2MzM5IDMuNDAzMjQgLTMuMjE5OTMgMy4zNzEzNiAtMy4wNTI1NUMzLjMwNzYgLTMuMTcyMSAzLjA2ODQ5IC0zLjUxNDgyIDIuNTkwMjkgLTMuNTE0ODJDMS42NDE4NCAtMy41MTQ4MiAwLjYwNTcyOSAtMi40NTQ3OSAwLjYwNTcyOSAtMS4yOTExNkMwLjYwNTcyOSAtMC40MzAzODYgMS4xNzE2MSAwIDEuNzYxMzkgMEMyLjEyODAyIDAgMi40NTQ3OSAtMC4xOTkyNTMgMi43MTc4MSAtMC40MzAzODZMMi41NDI0NyAwLjI4NjkyNEMyLjQ1NDc5IDAuNjIxNjY5IDIuMzk5IDAuODUyODAyIDIuMDg4MTcgMS4xMTU4MkMxLjc1MzQyIDEuNDAyNzQgMS40NTA1NiAxLjQwMjc0IDEuMjUxMzEgMS40MDI3NFMwLjg2MDc3MiAxLjM5NDc3IDAuNjY5NDg5IDEuMzU0OTJDMC44NDQ4MzIgMS4yNTkyOCAwLjkyNDUzMyAxLjA5MTkxIDAuOTI0NTMzIDAuOTU2NDEzQzAuOTI0NTMzIDAuNzY1MTMxIDAuNzgxMDcxIDAuNjYxNTE5IDAuNjEzNjk5IDAuNjYxNTE5QzAuNDE0NDQ2IDAuNjYxNTE5IDAuMTY3MzcyIDAuODIwOTIyIDAuMTY3MzcyIDEuMTM5NzNDMC4xNjczNzIgMS41OTQwMiAwLjc4OTA0MSAxLjYyNTkgMS4yNjcyNSAxLjYyNTlDMi4zOTkgMS42MjU5IDIuOTY0ODggMS4wMjAxNyAzLjA4NDQzIDAuNTMzOTk4TDMuOTUzMTggLTIuOTQwOTdaTTIuODc3MjEgLTEuMDUyMDVDMi44MjE0MiAtMC44Mjg4OTIgMi42NDYwOCAtMC42Njk0ODkgMi40Nzg3IC0wLjUxODA1N0MyLjQwNjk3IC0wLjQ2MjI2NyAyLjEwNDExIC0wLjIyMzE2MyAxLjc3NzMzIC0wLjIyMzE2M0MxLjQ1ODUzIC0wLjIyMzE2MyAxLjIyNzQgLTAuNDg2MTc3IDEuMjI3NCAtMC45NjQzODRDMS4yMjc0IC0xLjI5OTEzIDEuNDI2NjUgLTIuMTY3ODcgMS42NDE4NCAtMi41NzQzNUMxLjg5Njg5IC0zLjAyODY0IDIuMjcxNDggLTMuMjkxNjYgMi41OTAyOSAtMy4yOTE2NkMzLjEyNDI4IC0zLjI5MTY2IDMuMjY3NzUgLTIuNzAxODcgMy4yNjc3NSAtMi42MzAxNEwzLjI0Mzg0IC0yLjUxODU2TDIuODc3MjEgLTEuMDUyMDVaIiBpZD0iZzEtMTAzIi8+JiN4YTs8cGF0aCBkPSJNMi4zMjcyNyAtNS4yOTIxNUMyLjMzNTI0IC01LjMwODA5IDIuMzU5MTUgLTUuNDExNzEgMi4zNTkxNSAtNS40MTk2OEMyLjM1OTE1IC01LjQ1OTUzIDIuMzI3MjcgLTUuNTMxMjYgMi4yMzE2MyAtNS41MzEyNkMyLjE5OTc1IC01LjUzMTI2IDEuOTUyNjggLTUuNTA3MzUgMS43NjkzNiAtNS40OTE0MUwxLjMyMzA0IC01LjQ1OTUzQzEuMTQ3NyAtNS40NDM1OSAxLjA2OCAtNS40MzU2MiAxLjA2OCAtNS4yOTIxNUMxLjA2OCAtNS4xODA1NyAxLjE3OTU4IC01LjE4MDU3IDEuMjc1MjIgLTUuMTgwNTdDMS42NTc3OCAtNS4xODA1NyAxLjY1Nzc4IC01LjEzMjc1IDEuNjU3NzggLTUuMDYxMDJDMS42NTc3OCAtNS4wMzcxMSAxLjY1Nzc4IC01LjAyMTE3IDEuNjE3OTMgLTQuODc3NzFMMC40ODYxNzcgLTAuMzQyNzE1QzAuNDU0Mjk2IC0wLjIyMzE2MyAwLjQ1NDI5NiAtMC4xNzUzNDIgMC40NTQyOTYgLTAuMTY3MzcyQzAuNDU0Mjk2IC0wLjAzMTg4MDQgMC41NjU4NzggMC4wNzk3MDExIDAuNzE3MzEgMC4wNzk3MDExQzAuODQ0ODMyIDAuMDc5NzAxMSAwLjk1NjQxMyAwIDEuMDIwMTcgLTAuMTAzNjExQzEuMDQ0MDggLTAuMTUxNDMyIDEuMTA3ODUgLTAuNDA2NDc2IDEuMTQ3NyAtMC41NjU4NzhMMS4zMzEwMSAtMS4yNzUyMkMxLjM1NDkyIC0xLjM5NDc3IDEuNDM0NjIgLTEuNjk3NjMgMS40NTg1MyAtMS44MTcxOUMxLjU3ODA4IC0yLjI3OTQ1IDEuNTc4MDggLTIuMjk1MzkgMS43NTM0MiAtMi41NTA0NEMyLjAyNDQxIC0yLjk0MDk3IDIuMzk5IC0zLjI5MTY2IDIuOTMzIC0zLjI5MTY2QzMuMjE5OTMgLTMuMjkxNjYgMy4zODczIC0zLjEyNDI4IDMuMzg3MyAtMi43NDk2OUMzLjM4NzMgLTIuMzExMzMgMy4wNTI1NSAtMS40MDI3NCAyLjkwMTEyIC0xLjAxMjJDMi43OTc1MSAtMC43NDkxOTEgMi43OTc1MSAtMC43MDEzNyAyLjc5NzUxIC0wLjU5Nzc1OEMyLjc5NzUxIC0wLjE0MzQ2MiAzLjE3MjEgMC4wNzk3MDExIDMuNTE0ODIgMC4wNzk3MDExQzQuMjk1ODkgMC4wNzk3MDExIDQuNjIyNjcgLTEuMDM2MTEgNC42MjI2NyAtMS4xMzk3M0M0LjYyMjY3IC0xLjIxOTQzIDQuNTU4OSAtMS4yNDMzNCA0LjUwMzExIC0xLjI0MzM0QzQuNDA3NDcgLTEuMjQzMzQgNC4zOTE1MyAtMS4xODc1NSA0LjM2NzYyIC0xLjEwNzg1QzQuMTc2MzQgLTAuNDU0Mjk2IDMuODQxNTkgLTAuMTQzNDYyIDMuNTM4NzMgLTAuMTQzNDYyQzMuNDExMjEgLTAuMTQzNDYyIDMuMzQ3NDUgLTAuMjIzMTYzIDMuMzQ3NDUgLTAuNDA2NDc2UzMuNDExMjEgLTAuNzY1MTMxIDMuNDkwOTEgLTAuOTY0Mzg0QzMuNjEwNDYgLTEuMjY3MjUgMy45NjExNSAtMi4xODM4MSAzLjk2MTE1IC0yLjYzMDE0QzMuOTYxMTUgLTMuMjI3OSAzLjU0NjcgLTMuNTE0ODIgMi45NzI4NSAtMy41MTQ4MkMyLjUyNjUzIC0zLjUxNDgyIDIuMTA0MTEgLTMuMzIzNTQgMS43Mzc0OCAtMi45MDExMkwyLjMyNzI3IC01LjI5MjE1WiIgaWQ9ImcxLTEwNCIvPiYjeGE7PHBhdGggZD0iTTIuMzc1MDkgLTQuOTczMzVDMi4zNzUwOSAtNS4xNDg2OSAyLjI0NzU3IC01LjI3NjIxIDIuMDY0MjYgLTUuMjc2MjFDMS44NTcwNCAtNS4yNzYyMSAxLjYyNTkgLTUuMDg0OTMgMS42MjU5IC00Ljg0NTgzQzEuNjI1OSAtNC42NzA0OSAxLjc1MzQyIC00LjU0Mjk2IDEuOTM2NzQgLTQuNTQyOTZDMi4xNDM5NiAtNC41NDI5NiAyLjM3NTA5IC00LjczNDI1IDIuMzc1MDkgLTQuOTczMzVaTTEuMjExNDYgLTIuMDQ4MzJMMC43ODEwNzEgLTAuOTQ4NDQzQzAuNzQxMjIgLTAuODI4ODkyIDAuNzAxMzcgLTAuNzMzMjUgMC43MDEzNyAtMC41OTc3NThDMC43MDEzNyAtMC4yMDcyMjMgMS4wMDQyMyAwLjA3OTcwMTEgMS40MjY2NSAwLjA3OTcwMTFDMi4xOTk3NSAwLjA3OTcwMTEgMi41MjY1MyAtMS4wMzYxMSAyLjUyNjUzIC0xLjEzOTczQzIuNTI2NTMgLTEuMjE5NDMgMi40NjI3NiAtMS4yNDMzNCAyLjQwNjk3IC0xLjI0MzM0QzIuMzExMzMgLTEuMjQzMzQgMi4yOTUzOSAtMS4xODc1NSAyLjI3MTQ4IC0xLjEwNzg1QzIuMDg4MTcgLTAuNDcwMjM3IDEuNzYxMzkgLTAuMTQzNDYyIDEuNDQyNTkgLTAuMTQzNDYyQzEuMzQ2OTUgLTAuMTQzNDYyIDEuMjUxMzEgLTAuMTgzMzEzIDEuMjUxMzEgLTAuMzk4NTA2QzEuMjUxMzEgLTAuNTg5Nzg4IDEuMzA3MSAtMC43MzMyNSAxLjQxMDcxIC0wLjk4MDMyNEMxLjQ5MDQxIC0xLjE5NTUyIDEuNTcwMTEgLTEuNDEwNzEgMS42NTc3OCAtMS42MjU5TDEuOTA0ODYgLTIuMjcxNDhDMS45NzY1OSAtMi40NTQ3OSAyLjA3MjIzIC0yLjcwMTg3IDIuMDcyMjMgLTIuODM3MzZDMi4wNzIyMyAtMy4yMzU4NyAxLjc1MzQyIC0zLjUxNDgyIDEuMzQ2OTUgLTMuNTE0ODJDMC41NzM4NDggLTMuNTE0ODIgMC4yMzkxMDMgLTIuMzk5IDAuMjM5MTAzIC0yLjI5NTM5QzAuMjM5MTAzIC0yLjIyMzY2IDAuMjk0ODk0IC0yLjE5MTc4IDAuMzU4NjU1IC0yLjE5MTc4QzAuNDYyMjY3IC0yLjE5MTc4IDAuNDcwMjM3IC0yLjIzOTYgMC40OTQxNDcgLTIuMzE5M0MwLjcxNzMxIC0zLjA3NjQ2IDEuMDgzOTQgLTMuMjkxNjYgMS4zMjMwNCAtMy4yOTE2NkMxLjQzNDYyIC0zLjI5MTY2IDEuNTE0MzIgLTMuMjUxODEgMS41MTQzMiAtMy4wMjg2NEMxLjUxNDMyIC0yLjk0ODk0IDEuNTA2MzUgLTIuODM3MzYgMS40MjY2NSAtMi41OTgyNkwxLjIxMTQ2IC0yLjA0ODMyWiIgaWQ9ImcxLTEwNSIvPiYjeGE7PHBhdGggZD0iTTEuNTM4MjMgLTEuMDk5ODhDMS42MjU5IC0xLjQ0MjU5IDEuNzEzNTcgLTEuNzg1MzEgMS43OTMyOCAtMi4xMzU5OUMxLjgwMTI1IC0yLjE1MTkzIDEuODU3MDQgLTIuMzgzMDYgMS44NjUwMSAtMi40MjI5MUMxLjg4ODkyIC0yLjQ5NDY1IDIuMDg4MTcgLTIuODIxNDIgMi4yOTUzOSAtMy4wMjA2N0MyLjU1MDQ0IC0zLjI1MTgxIDIuODIxNDIgLTMuMjkxNjYgMi45NjQ4OCAtMy4yOTE2NkMzLjA1MjU1IC0zLjI5MTY2IDMuMTk2MDEgLTMuMjgzNjkgMy4zMDc2IC0zLjE4ODA0QzIuOTY0ODggLTMuMTE2MzEgMi45MTcwNiAtMi44MjE0MiAyLjkxNzA2IC0yLjc0OTY5QzIuOTE3MDYgLTIuNTc0MzUgMy4wNTI1NSAtMi40NTQ3OSAzLjIyNzkgLTIuNDU0NzlDMy40NDMwOSAtMi40NTQ3OSAzLjY4MjE5IC0yLjYzMDE0IDMuNjgyMTkgLTIuOTQ4OTRDMy42ODIxOSAtMy4yMzU4NyAzLjQzNTEyIC0zLjUxNDgyIDIuOTgwODIgLTMuNTE0ODJDMi40Mzg4NSAtMy41MTQ4MiAyLjA3MjIzIC0zLjE1NjE2IDEuOTA0ODYgLTIuOTQwOTdDMS43NDU0NSAtMy41MTQ4MiAxLjIwMzQ5IC0zLjUxNDgyIDEuMTIzNzkgLTMuNTE0ODJDMC44MzY4NjIgLTMuNTE0ODIgMC42Mzc2MDkgLTMuMzMxNTEgMC41MTAwODcgLTMuMDg0NDNDMC4zMjY3NzUgLTIuNzI1NzggMC4yMzkxMDMgLTIuMzE5MyAwLjIzOTEwMyAtMi4yOTUzOUMwLjIzOTEwMyAtMi4yMjM2NiAwLjI5NDg5NCAtMi4xOTE3OCAwLjM1ODY1NSAtMi4xOTE3OEMwLjQ2MjI2NyAtMi4xOTE3OCAwLjQ3MDIzNyAtMi4yMjM2NiAwLjUyNjAyNyAtMi40MzA4OEMwLjYyMTY2OSAtMi44MjE0MiAwLjc2NTEzMSAtMy4yOTE2NiAxLjA5OTg4IC0zLjI5MTY2QzEuMzA3MSAtMy4yOTE2NiAxLjM1NDkyIC0zLjA5MjQgMS4zNTQ5MiAtMi45MTcwNkMxLjM1NDkyIC0yLjc3MzYgMS4zMTUwNyAtMi42MjIxNyAxLjI1MTMxIC0yLjM1OTE1QzEuMjM1MzcgLTIuMjk1MzkgMS4xMTU4MiAtMS44MjUxNiAxLjA4Mzk0IC0xLjcxMzU3TDAuNzg5MDQxIC0wLjUxODA1N0MwLjc1NzE2MSAtMC4zOTg1MDYgMC43MDkzNCAtMC4xOTkyNTMgMC43MDkzNCAtMC4xNjczNzJDMC43MDkzNCAwLjAxNTk0MDIgMC44NjA3NzIgMC4wNzk3MDExIDAuOTY0Mzg0IDAuMDc5NzAxMUMxLjI0MzM0IDAuMDc5NzAxMSAxLjI5OTEzIC0wLjE0MzQ2MiAxLjM2Mjg5IC0wLjQxNDQ0NkwxLjUzODIzIC0xLjA5OTg4WiIgaWQ9ImcxLTExNCIvPiYjeGE7PHBhdGggZD0iTTEuNzYxMzkgLTMuMTcyMUgyLjU0MjQ3QzIuNjkzOSAtMy4xNzIxIDIuNzg5NTQgLTMuMTcyMSAyLjc4OTU0IC0zLjMyMzU0QzIuNzg5NTQgLTMuNDM1MTIgMi42ODU5MyAtMy40MzUxMiAyLjU1MDQ0IC0zLjQzNTEySDEuODI1MTZMMi4xMTIwOCAtNC41NjY4N0MyLjE0Mzk2IC00LjY4NjQzIDIuMTQzOTYgLTQuNzI2MjggMi4xNDM5NiAtNC43MzQyNUMyLjE0Mzk2IC00LjkwMTYyIDIuMDE2NDQgLTQuOTgxMzIgMS44ODA5NSAtNC45ODEzMkMxLjYwOTk2IC00Ljk4MTMyIDEuNTU0MTcgLTQuNzY2MTMgMS40NjY1IC00LjQwNzQ3TDEuMjE5NDMgLTMuNDM1MTJIMC40NTQyOTZDMC4zMDI4NjQgLTMuNDM1MTIgMC4xOTkyNTMgLTMuNDM1MTIgMC4xOTkyNTMgLTMuMjgzNjlDMC4xOTkyNTMgLTMuMTcyMSAwLjMwMjg2NCAtMy4xNzIxIDAuNDM4MzU2IC0zLjE3MjFIMS4xNTU2N0wwLjY3NzQ2IC0xLjI1OTI4QzAuNjI5NjM5IC0xLjA2MDAyIDAuNTU3OTA4IC0wLjc4MTA3MSAwLjU1NzkwOCAtMC42Njk0ODlDMC41NTc5MDggLTAuMTkxMjgzIDAuOTQ4NDQzIDAuMDc5NzAxMSAxLjM3MDg2IDAuMDc5NzAxMUMyLjIyMzY2IDAuMDc5NzAxMSAyLjcwOTg0IC0xLjA0NDA4IDIuNzA5ODQgLTEuMTM5NzNDMi43MDk4NCAtMS4yMjc0IDIuNjM4MTEgLTEuMjQzMzQgMi41OTAyOSAtMS4yNDMzNEMyLjUwMjYyIC0xLjI0MzM0IDIuNDk0NjUgLTEuMjExNDYgMi40Mzg4NSAtMS4wOTE5MUMyLjI3OTQ1IC0wLjcwOTM0IDEuODgwOTUgLTAuMTQzNDYyIDEuMzk0NzcgLTAuMTQzNDYyQzEuMjI3NCAtMC4xNDM0NjIgMS4xMzE3NiAtMC4yNTUwNDQgMS4xMzE3NiAtMC41MTgwNTdDMS4xMzE3NiAtMC42Njk0ODkgMS4xNTU2NyAtMC43NTcxNjEgMS4xNzk1OCAtMC44NjA3NzJMMS43NjEzOSAtMy4xNzIxWiIgaWQ9ImcxLTExNiIvPiYjeGE7PHBhdGggZD0iTTMuOTA1MzUgLTIuNjA2MjNDMy45NTMxOCAtMi43OTc1MSA0LjA0MDg1IC0zLjE0MDIyIDQuMDQwODUgLTMuMTg4MDRDNC4wNDA4NSAtMy4zODczIDMuODgxNDQgLTMuNDM1MTIgMy43ODU4IC0zLjQzNTEyQzMuNTA2ODUgLTMuNDM1MTIgMy40NTkwMyAtMy4yMzU4NyAzLjM2MzM5IC0yLjg2OTI0QzMuMjU5NzggLTIuNDU0NzkgMy4yMjc5IC0yLjMwMzM2IDMuMTA4MzQgLTEuODQ5MDdDMy4wMzY2MSAtMS41NDYyIDIuOTQwOTcgLTEuMTcxNjEgMi45NDA5NyAtMC45NDA0NzNDMi45NDA5NyAtMC45MDA2MjMgMi45NDg5NCAtMC44MzY4NjIgMi45NDg5NCAtMC43OTcwMTFDMi45NDg5NCAtMC43ODkwNDEgMi43MzM3NSAtMC4xNDM0NjIgMi4yMDc3MiAtMC4xNDM0NjJDMS44ODg5MiAtMC4xNDM0NjIgMS41MzAyNiAtMC4yNzA5ODQgMS41MzAyNiAtMC44NjA3NzJDMS41MzAyNiAtMS4yNTEzMSAxLjcxMzU3IC0xLjc2OTM2IDEuOTY4NjIgLTIuNDE0OTRDMi4wNDgzMiAtMi42MjIxNyAyLjA3MjIzIC0yLjY5MzkgMi4wNzIyMyAtMi44MzczNkMyLjA3MjIzIC0zLjI3NTcyIDEuNzIxNTQgLTMuNTE0ODIgMS4zNTQ5MiAtMy41MTQ4MkMwLjU2NTg3OCAtMy41MTQ4MiAwLjIzOTEwMyAtMi4zOTEwMyAwLjIzOTEwMyAtMi4yOTUzOUMwLjIzOTEwMyAtMi4yMjM2NiAwLjI5NDg5NCAtMi4xOTE3OCAwLjM1ODY1NSAtMi4xOTE3OEMwLjQ2MjI2NyAtMi4xOTE3OCAwLjQ3MDIzNyAtMi4yMzk2IDAuNDk0MTQ3IC0yLjMxOTNDMC43MDEzNyAtMy4wMTI3IDEuMDQ0MDggLTMuMjkxNjYgMS4zMzEwMSAtMy4yOTE2NkMxLjQ1MDU2IC0zLjI5MTY2IDEuNTIyMjkgLTMuMjExOTYgMS41MjIyOSAtMy4wMjg2NEMxLjUyMjI5IC0yLjg2MTI3IDEuNDU4NTMgLTIuNjc3OTYgMS40MDI3NCAtMi41MzQ1QzEuMDkxOTEgLTEuNzM3NDggMC45NDg0NDMgLTEuMzE1MDcgMC45NDg0NDMgLTAuOTY0Mzg0QzAuOTQ4NDQzIC0wLjE1MTQzMiAxLjYxNzkzIDAuMDc5NzAxMSAyLjE3NTg0IDAuMDc5NzAxMUMyLjMwMzM2IDAuMDc5NzAxMSAyLjcxNzgxIDAuMDc5NzAxMSAzLjA0NDU4IC0wLjQ0NjMyNkMzLjI2Nzc1IC0wLjAxNTk0MDIgMy43Njk4NiAwLjA3OTcwMTEgNC4xMTI1OCAwLjA3OTcwMTFDNC44Mjk4OSAwLjA3OTcwMTEgNS4xNjQ2MyAtMC41ODk3ODggNS4zMDgwOSAtMC44Njg3NDJDNS41NjMxNCAtMS4zODY4IDUuODQyMDkgLTIuNDMwODggNS44NDIwOSAtMi45MDExMkM1Ljg0MjA5IC0zLjUyMjc5IDUuNDgzNDQgLTMuNTIyNzkgNS40NTE1NiAtMy41MjI3OUM1LjI2MDI3IC0zLjUyMjc5IDUuMDM3MTEgLTMuMzE1NTcgNS4wMzcxMSAtMy4xMDgzNEM1LjAzNzExIC0yLjk5Njc2IDUuMDg0OTMgLTIuOTMzIDUuMTQwNzIgLTIuODkzMTVDNS4yMjgzOSAtMi44MTM0NSA1LjQ2NzUgLTIuNjE0MiA1LjQ2NzUgLTIuMjIzNjZDNS40Njc1IC0xLjk5MjUzIDUuMjQ0MzMgLTEuMjM1MzcgNS4wMjExNyAtMC44MjA5MjJDNC43OTgwMSAtMC40MjI0MTYgNC41MzQ5OSAtMC4xNDM0NjIgNC4xMzY0OSAtMC4xNDM0NjJDMy43ODU4IC0wLjE0MzQ2MiAzLjUxNDgyIC0wLjMyNjc3NSAzLjUxNDgyIC0wLjgzNjg2MkMzLjUxNDgyIC0xLjA0NDA4IDMuNTcwNjEgLTEuMjY3MjUgMy42ODIxOSAtMS43MTM1N0wzLjkwNTM1IC0yLjYwNjIzWiIgaWQ9ImcxLTExOSIvPiYjeGE7PC9kZWZzPiYjeGE7PGcgaWQ9InBhZ2UxIiB0cmFuc2Zvcm09Im1hdHJpeCgxLjEzIDAgMCAxLjEzIC02My45ODYgLTY0LjQ0OCkiPiYjeGE7PHVzZSB4PSI1Ni40MTMzIiB4bGluazpocmVmPSIjZzItMTA4IiB5PSI2NS43NTM0Ii8+JiN4YTs8dXNlIHg9IjYwLjE1IiB4bGluazpocmVmPSIjZzItMTExIiB5PSI2NS43NTM0Ii8+JiN4YTs8dXNlIHg9IjY1Ljc1NjUiIHhsaW5rOmhyZWY9IiNnMi0xMTUiIHk9IjY1Ljc1MzQiLz4mI3hhOzx1c2UgeD0iNzEuMjQ5OSIgeGxpbms6aHJlZj0iI2cyLTExNSIgeT0iNjUuNzUzNCIvPiYjeGE7PHVzZSB4PSI3Ni43NDMzIiB4bGluazpocmVmPSIjZzEtOTciIHk9IjY3LjU0NjciLz4mI3hhOzx1c2UgeD0iODEuMjI0NSIgeGxpbms6aHJlZj0iI2cxLTExNCIgeT0iNjcuNTQ2NyIvPiYjeGE7PHVzZSB4PSI4NS4yNjY4IiB4bGluazpocmVmPSIjZzEtOTkiIHk9IjY3LjU0NjciLz4mI3hhOzxyZWN0IGhlaWdodD0iMC4zOTg1IiB3aWR0aD0iMi41NDA1MiIgeD0iODkuNDI4OSIgeT0iNjcuMTQ4MiIvPiYjeGE7PHVzZSB4PSI5MS45Njk1IiB4bGluazpocmVmPSIjZzEtMTE5IiB5PSI2Ny41NDY3Ii8+JiN4YTs8dXNlIHg9Ijk4LjIzODEiIHhsaW5rOmhyZWY9IiNnMS0xMDEiIHk9IjY3LjU0NjciLz4mI3hhOzx1c2UgeD0iMTAyLjE1MiIgeGxpbms6aHJlZj0iI2cxLTEwNSIgeT0iNjcuNTQ2NyIvPiYjeGE7PHVzZSB4PSIxMDUuMDI0IiB4bGluazpocmVmPSIjZzEtMTAzIiB5PSI2Ny41NDY3Ii8+JiN4YTs8dXNlIHg9IjEwOS4zMjUiIHhsaW5rOmhyZWY9IiNnMS0xMDQiIHk9IjY3LjU0NjciLz4mI3hhOzx1c2UgeD0iMTE0LjE4NyIgeGxpbms6aHJlZj0iI2cxLTExNiIgeT0iNjcuNTQ2NyIvPiYjeGE7PHVzZSB4PSIxMTcuMjMzIiB4bGluazpocmVmPSIjZzEtMTAxIiB5PSI2Ny41NDY3Ii8+JiN4YTs8dXNlIHg9IjEyMS4xNDciIHhsaW5rOmhyZWY9IiNnMS0xMDAiIHk9IjY3LjU0NjciLz4mI3hhOzx1c2UgeD0iMTI4LjE0NyIgeGxpbms6aHJlZj0iI2czLTQwIiB5PSI2NS43NTM0Ii8+JiN4YTs8dXNlIHg9IjEzMi42OTkiIHhsaW5rOmhyZWY9IiNnMi04OCIgeT0iNjUuNzUzNCIvPiYjeGE7PHVzZSB4PSIxNDIuNjY4IiB4bGluazpocmVmPSIjZzItNTkiIHk9IjY1Ljc1MzQiLz4mI3hhOzx1c2UgeD0iMTQ3LjkiIHhsaW5rOmhyZWY9IiNnMi03MiIgeT0iNjUuNzUzNCIvPiYjeGE7PHVzZSB4PSIxNTguNDg2IiB4bGluazpocmVmPSIjZzAtMTA2IiB5PSI2NS43NTM0Ii8+JiN4YTs8dXNlIHg9IjE2MS43OTUiIHhsaW5rOmhyZWY9IiNnMi0xMTkiIHk9IjY1Ljc1MzQiLz4mI3hhOzx1c2UgeD0iMTcwLjQ1MyIgeGxpbms6aHJlZj0iI2czLTQxIiB5PSI2NS43NTM0Ii8+JiN4YTs8L2c+JiN4YTs8L3N2Zz4=;" vertex="1" parent="1">
          <mxGeometry x="201" y="170" width="179" height="18" as="geometry" />
        </mxCell>
      </root>
    </mxGraphModel>
  </diagram>
</mxfile>
